<svg width="159" height="92" viewBox="0 0 159 92" fill="none" xmlns="http://www.w3.org/2000/svg">
<g clip-path="url(#clip0_336_5415)">
<path fill-rule="evenodd" clip-rule="evenodd" d="M65.7655 0.445312L123.028 27.8958L124.046 29.5966L118.532 69.0391L117.492 70.2849L79.6424 91.1057L77.8658 91.084L42.3015 70.1549L41.2832 69.0824L35.3359 47.8933L35.4443 46.4417L63.3606 1.47444L65.7655 0.445312ZM96.0753 34.3843C96.0753 33.4852 95.6637 33.0736 94.2121 32.1744C92.9121 31.3728 92.2622 30.6145 92.2622 29.4121C92.2622 27.9713 93.3563 27.2021 94.9595 27.2021C95.587 27.2091 96.2092 27.3189 96.8011 27.5271C96.9853 27.5921 97.0286 27.6463 97.0286 27.8521L96.9961 28.9354C96.9961 29.0221 96.9636 29.0546 96.8336 29.0762C96.7036 29.0979 96.6603 29.0546 96.6386 28.9679C96.487 28.2638 95.9562 27.8955 95.0137 27.8955C94.1037 27.8955 93.4971 28.3396 93.4971 29.1629C93.4971 29.9862 93.9413 30.387 95.252 31.2645C96.7686 32.2936 97.3428 32.8352 97.3428 34.0377C97.3428 35.6301 96.2812 36.4751 94.7212 36.4751C94.0689 36.4658 93.4207 36.3711 92.793 36.1934C92.5655 36.1284 92.5113 36.0418 92.533 35.8901C92.5546 35.5001 92.5438 35.0018 92.5005 34.5685C92.4896 34.4927 92.5221 34.4385 92.6413 34.406C92.7605 34.3627 92.8146 34.3843 92.8471 34.4602C93.1938 35.4026 93.8329 35.771 94.6346 35.771C95.5445 35.771 96.0753 35.2835 96.0753 34.3843ZM51.7797 50.6012L52.9388 50.5795C53.058 50.5795 53.0796 50.6228 53.0905 50.7962C53.0905 50.9153 53.0688 50.9695 52.9605 50.9803C52.3755 51.0345 52.2022 51.1536 52.1697 51.8253L52.1372 55.8551C52.1372 58.5092 51.2922 59.8524 48.9415 59.8524C46.4824 59.8524 45.3666 58.6717 45.475 55.6709L45.5075 52.8761C45.5075 52.3557 45.489 51.9 45.4776 51.6201C45.4767 51.597 45.4758 51.5751 45.475 51.5545C45.4533 51.132 45.2041 51.002 44.8142 50.9478C44.7275 50.937 44.6842 50.9045 44.695 50.7528C44.7058 50.6012 44.7492 50.5795 44.8575 50.5795L46.1683 50.6012C46.4933 50.6012 47.0132 50.5903 47.414 50.5687C47.5332 50.5578 47.5765 50.5903 47.5874 50.742C47.5982 50.8828 47.544 50.937 47.4574 50.9478C46.9916 51.0236 46.7966 51.1536 46.7749 51.5653C46.7424 52.0636 46.7316 52.4969 46.7316 52.8652V55.5735C46.6016 58.26 47.3924 59.0616 49.1256 59.0616C50.5556 59.0616 51.3247 58.1733 51.2706 55.8009C51.2706 55.8009 51.2922 53.2444 51.2814 52.7677L51.2489 51.7819C51.2381 51.2403 51.0214 51.0128 50.4148 50.9695C50.3281 50.9695 50.2739 50.9153 50.2739 50.7853C50.2739 50.6228 50.3281 50.5795 50.4148 50.5795L51.6064 50.6012H51.7797ZM66.4149 43.1265L67.9857 39.0208C68.029 38.9017 68.1373 38.8367 68.3648 38.8475C68.5923 38.8475 68.6898 38.8908 68.7331 38.9991C69.1403 40.043 69.5324 41.0161 69.9265 41.9944C70.109 42.4476 70.2921 42.9018 70.4772 43.3648L71.8422 46.7988C72.1563 47.568 72.2972 47.6871 72.6005 47.7629C72.6655 47.7846 72.7196 47.8171 72.698 47.9363C72.6763 48.0663 72.6438 48.0988 72.5247 48.0988C72.1997 48.0771 71.853 48.0771 71.4197 48.0771C71.0406 48.0771 70.5531 48.0771 70.2173 48.0988C70.1306 48.1096 70.0981 48.0663 70.0873 47.9579C70.0764 47.8388 70.1089 47.7846 70.1848 47.7738C70.5531 47.7196 70.6722 47.5788 70.6722 47.3513C70.6722 47.2538 70.6397 47.1346 70.5531 46.9072L69.8923 45.1414C69.8381 45.0006 69.7731 44.9789 69.6106 44.9681C68.6577 44.931 67.7037 44.931 66.7507 44.9681C66.6316 44.9681 66.5666 45.0114 66.5016 45.1847L65.9708 46.6147L65.7541 47.2321L65.7216 47.438C65.7216 47.6871 65.8624 47.7846 66.1658 47.9254C66.2308 47.9579 66.2524 48.0229 66.2091 48.1313C66.1658 48.2396 66.1116 48.2721 66.0249 48.2396C65.6999 48.1096 65.2883 47.9688 64.9416 47.8713C64.9122 47.8629 64.8811 47.8539 64.8485 47.8445C64.6289 47.7812 64.3387 47.6976 63.9992 47.6221C63.88 47.5896 63.8584 47.5463 63.88 47.4163C63.9017 47.2971 63.945 47.2755 64.01 47.2863C64.6167 47.3621 64.8441 47.1996 65.1366 46.4522L66.4149 43.1265ZM69.5131 44.0364L68.2673 40.6782C68.2132 40.5483 68.159 40.5483 68.1265 40.6782L66.9132 44.0689L66.8916 44.1664C66.8916 44.2206 66.9241 44.2423 66.9891 44.2423H69.4373C69.5456 44.2314 69.5673 44.1989 69.5131 44.0364ZM69.2856 36.1284C69.6864 35.9984 69.8056 35.6085 69.8056 35.121C69.8056 33.9727 69.8056 32.7811 69.7839 31.6653V28.3071C69.7839 27.928 69.6539 27.733 69.2965 27.603C69.2206 27.5705 69.1773 27.538 69.199 27.4188C69.2206 27.3105 69.2531 27.278 69.3506 27.278L71.0189 27.2996H72.828C72.89 27.2996 72.952 27.2998 73.0138 27.2999C73.5667 27.3008 74.0967 27.3018 74.3987 27.2238C74.4854 27.2021 74.5179 27.213 74.5612 27.2455C74.5937 27.278 74.6046 27.3105 74.6046 27.3755C74.5937 27.7546 74.6154 28.1879 74.6479 28.5563C74.6587 28.6213 74.6371 28.6646 74.5287 28.6863C74.4204 28.7079 74.3554 28.6863 74.3446 28.6213C74.2363 28.1554 74.0846 28.0038 73.7596 27.9713C73.4454 27.9388 73.0013 27.928 72.5355 27.928L71.2789 27.9388C71.1055 27.9388 71.0406 28.0146 71.0406 28.1663L71.0081 31.3511C71.0081 31.4811 71.0622 31.5245 71.1705 31.5245C71.9505 31.5461 72.8171 31.5353 73.3155 31.5136C73.6188 31.492 73.7271 31.3511 73.7921 31.037C73.8138 30.972 73.8679 30.9395 73.9871 30.9503C74.1063 30.972 74.1388 31.0045 74.1388 31.0803C74.1063 31.5895 74.0846 32.2936 74.1279 32.7269C74.1279 32.8136 74.0846 32.8569 73.9763 32.8677C73.8571 32.8894 73.7921 32.8569 73.7704 32.7594C73.7163 32.4344 73.6296 32.3044 73.3371 32.2936C72.763 32.2611 71.983 32.2719 71.203 32.2936C71.0622 32.2936 71.0081 32.3478 71.0081 32.4994C71.0081 33.1277 71.0189 34.3085 71.0406 35.1318C71.0622 35.5326 71.203 35.6626 71.4955 35.706C71.7941 35.7574 72.1808 35.7698 72.5067 35.7802C72.5237 35.7807 72.5405 35.7812 72.5572 35.7818C72.9038 35.7818 73.413 35.7493 73.7054 35.6951C74.2038 35.5976 74.4204 35.2943 74.5937 34.7093C74.6154 34.6335 74.6587 34.601 74.7779 34.6227C74.8971 34.6443 74.9404 34.6877 74.9296 34.7743C74.8537 35.2618 74.7996 35.8685 74.7996 36.2476C74.8104 36.3993 74.7671 36.4534 74.5721 36.4318C74.1359 36.3962 73.6119 36.3971 72.8137 36.3986C72.6406 36.3989 72.4546 36.3993 72.2538 36.3993C71.9317 36.3993 71.6343 36.3965 71.3581 36.394C70.5382 36.3864 69.9044 36.3805 69.3615 36.4534C69.2748 36.4643 69.2206 36.4209 69.199 36.3126C69.1773 36.2151 69.2098 36.1501 69.2856 36.1284ZM65.2554 36.3993C63.8799 36.3993 63.0783 36.3993 62.4501 36.4426C62.3526 36.4534 62.3093 36.4318 62.2768 36.3126C62.2659 36.2043 62.2984 36.1501 62.3851 36.1284C62.8184 35.9984 62.9051 35.6626 62.9051 34.7743L62.9159 31.6978V28.4913C62.9159 27.8196 62.8617 27.668 62.4826 27.538C62.4284 27.5163 62.4067 27.473 62.4176 27.3863C62.4284 27.278 62.4717 27.2563 62.5584 27.2563L63.5442 27.2671L64.5192 27.2455C64.6167 27.2346 64.6492 27.278 64.66 27.3755C64.6708 27.4838 64.6492 27.5271 64.5733 27.5488C64.2592 27.6571 64.1725 27.8413 64.1617 28.4804C64.14 29.1412 64.1292 30.3978 64.1292 31.6545C64.1165 32.7125 64.1201 33.7706 64.14 34.8285C64.1617 35.4243 64.2592 35.5868 64.7033 35.6843C65.4186 35.772 66.1409 35.7865 66.8591 35.7276C67.3899 35.6518 67.639 35.3051 67.8557 34.7202C67.8773 34.6552 67.9207 34.6335 68.0398 34.666C68.1482 34.6877 68.1807 34.731 68.1698 34.796C68.094 35.3051 68.029 35.9009 68.029 36.2584C68.029 36.4101 67.964 36.4643 67.8232 36.4534C67.1624 36.4209 66.1658 36.3993 65.2558 36.3993H65.2554ZM63.6742 59.4191C64.0317 59.3325 64.1292 59.0833 64.14 58.4875V55.1618L64.1508 51.9119C64.1508 51.197 64.0533 51.0236 63.6525 50.9261C63.5767 50.9045 63.5442 50.872 63.5442 50.7637C63.5442 50.6553 63.5984 50.6012 63.6742 50.6012C63.945 50.6228 64.3675 50.6228 64.7683 50.6228C65.05 50.6228 65.5158 50.6228 65.8083 50.6012C65.8841 50.5903 65.9383 50.612 65.9383 50.742C65.9487 50.8886 65.9086 50.9036 65.8276 50.9338L65.8191 50.937C65.4508 51.0453 65.375 51.197 65.375 51.8686V55.1726L65.3533 58.455C65.375 59.1808 65.4291 59.3541 65.8733 59.4408C65.9599 59.4625 65.9924 59.5166 65.9708 59.6358C65.9599 59.7441 65.9166 59.7658 65.8408 59.7658C65.57 59.7441 65.1802 59.7441 64.7796 59.7441H64.7791H64.7788C64.4214 59.7441 63.9883 59.7441 63.7067 59.7658C63.6309 59.7658 63.5767 59.7333 63.5659 59.6249C63.5442 59.5058 63.5875 59.4408 63.6742 59.4191ZM92.3488 59.8199C91.6965 59.8106 91.0483 59.7159 90.4206 59.5383C90.1931 59.4733 90.1389 59.3866 90.1606 59.2458C90.1822 58.8558 90.1714 58.3575 90.1281 57.9242C90.1172 57.8484 90.1497 57.7942 90.2689 57.7617C90.3881 57.7184 90.4422 57.74 90.4747 57.8159C90.8214 58.7583 91.4605 59.1266 92.2622 59.1266C93.1721 59.1266 93.7029 58.6392 93.7029 57.74C93.7029 56.8409 93.2913 56.4292 91.8397 55.5301C90.5397 54.7177 89.8898 53.9594 89.8898 52.7569C89.8898 51.3161 90.9839 50.547 92.5871 50.547C93.2146 50.554 93.8368 50.6637 94.4287 50.872C94.6129 50.937 94.6562 50.9911 94.6562 51.197L94.6237 52.2803C94.6237 52.3669 94.5912 52.3994 94.4612 52.4211C94.3312 52.4427 94.2879 52.3994 94.2662 52.3128C94.1146 51.6086 93.5838 51.2403 92.6413 51.2403C91.7313 51.2403 91.1247 51.6845 91.1247 52.5077C91.1247 53.331 91.5689 53.7319 92.8796 54.6093C94.3962 55.6385 94.9704 56.1801 94.9704 57.3825C94.9704 58.975 93.9088 59.8199 92.3488 59.8199ZM73.4346 39.01C73.4779 38.88 73.5213 38.8583 73.6188 38.88C73.92 38.9526 74.2301 38.9818 74.5396 38.9667C74.6843 38.9623 74.8949 38.949 75.1208 38.9348C75.4526 38.9138 75.8177 38.8908 76.0562 38.8908C78.1036 38.8908 79.4685 39.6816 79.4685 41.5232C79.4845 42.0439 79.3361 42.5564 79.0445 42.9881C78.7528 43.4198 78.3327 43.7486 77.8436 43.9281C77.8404 43.93 77.8372 43.9319 77.834 43.9338C77.7844 43.9633 77.7461 43.9862 77.7461 44.0473C77.7461 44.0884 77.7678 44.1208 77.8002 44.1693C77.819 44.1975 77.8414 44.231 77.8653 44.2748C78.5369 45.4122 79.2302 46.5063 79.7502 47.2646C79.9993 47.633 80.1618 47.7196 80.3893 47.7738C80.4868 47.7954 80.5302 47.8388 80.5085 47.9579C80.4868 48.0988 80.4543 48.1204 80.3677 48.1204H79.4144C78.8836 48.1204 78.7536 48.0663 77.8544 46.5388C77.4925 45.9248 77.1242 45.3145 76.7495 44.7081C76.5545 44.3939 76.4353 44.3289 76.1537 44.3073C75.8905 44.2873 75.6264 44.2837 75.3629 44.2964C75.2437 44.2964 75.1895 44.3398 75.1895 44.4806L75.1787 45.7589L75.1895 46.853C75.1895 47.438 75.2762 47.6438 75.6337 47.7521C75.6879 47.7738 75.7095 47.8171 75.6987 47.9038C75.677 48.0338 75.6229 48.0554 75.5254 48.0554L74.5612 48.0446C74.2796 48.0446 73.8571 48.0446 73.5754 48.0663C73.4996 48.0771 73.4563 48.0446 73.4454 47.9254C73.4346 47.8279 73.4671 47.7846 73.5429 47.7629C73.8571 47.6871 73.9329 47.4921 73.9438 46.8747C73.9794 44.5746 73.9794 42.2742 73.9438 39.9741C73.9329 39.5625 73.7813 39.3458 73.4888 39.2266C73.4021 39.1941 73.3913 39.1291 73.4346 39.01ZM75.3954 39.5083C75.287 39.5191 75.222 39.5733 75.222 39.7358L75.1895 43.5056C75.1895 43.6248 75.222 43.6681 75.3304 43.679C75.5362 43.7006 75.7962 43.7115 76.0778 43.7115C77.3886 43.7115 78.2119 43.0073 78.2119 41.6749C78.2119 40.0499 77.2695 39.465 75.9587 39.465C75.7637 39.465 75.5254 39.4866 75.3954 39.5083ZM76.2728 36.1284C76.6736 35.9984 76.7928 35.6085 76.7928 35.121C76.7928 33.9727 76.7928 32.7811 76.7711 31.6653V28.3071C76.7711 27.928 76.6412 27.733 76.2837 27.603C76.2078 27.5705 76.1645 27.538 76.1862 27.4188C76.2078 27.3105 76.2403 27.278 76.3378 27.278L78.0061 27.2996H79.8152C79.8772 27.2996 79.9392 27.2998 80.001 27.2999C80.5539 27.3008 81.0839 27.3018 81.386 27.2238C81.4726 27.2021 81.5051 27.213 81.5484 27.2455C81.5809 27.278 81.5918 27.3105 81.5918 27.3755C81.5809 27.7546 81.6026 28.1879 81.6351 28.5563C81.6459 28.6213 81.6243 28.6646 81.5159 28.6863C81.4076 28.7079 81.3426 28.6863 81.3318 28.6213C81.2235 28.1554 81.0718 28.0038 80.7468 27.9713C80.4327 27.9388 79.9885 27.928 79.5227 27.928L78.2661 27.9388C78.0928 27.9388 78.0278 28.0146 78.0278 28.1663L77.9953 31.3511C77.9953 31.4811 78.0494 31.5245 78.1578 31.5245C78.9377 31.5461 79.8044 31.5353 80.3027 31.5136C80.606 31.492 80.7143 31.3511 80.7793 31.037C80.801 30.972 80.8551 30.9395 80.9743 30.9503C81.0935 30.972 81.126 31.0045 81.126 31.0803C81.0935 31.5895 81.0718 32.2936 81.1151 32.7269C81.1151 32.8136 81.0718 32.8569 80.9635 32.8677C80.8443 32.8894 80.7793 32.8569 80.7576 32.7594C80.7035 32.4344 80.6168 32.3044 80.3243 32.2936C79.7502 32.2611 78.9702 32.2719 78.1903 32.2936C78.0494 32.2936 77.9953 32.3478 77.9953 32.4994C77.9953 33.1277 78.0061 34.3085 78.0278 35.1318C78.0494 35.5326 78.1903 35.6626 78.4827 35.706C78.7813 35.7574 79.168 35.7698 79.4939 35.7802L79.5444 35.7818C79.891 35.7818 80.4002 35.7493 80.6926 35.6951C81.191 35.5976 81.4076 35.2943 81.5809 34.7093C81.6026 34.6335 81.6459 34.601 81.7651 34.6227C81.8843 34.6443 81.9276 34.6877 81.9168 34.7743C81.8409 35.2618 81.7868 35.8685 81.7868 36.2476C81.7976 36.3993 81.7543 36.4534 81.5593 36.4318C81.1231 36.3962 80.5991 36.3971 79.8009 36.3986C79.6278 36.3989 79.4418 36.3993 79.241 36.3993C78.9189 36.3993 78.6215 36.3965 78.3453 36.394C77.5254 36.3864 76.8916 36.3805 76.3487 36.4534C76.262 36.4643 76.2078 36.4209 76.1862 36.3126C76.1645 36.2151 76.197 36.1501 76.2728 36.1284ZM85.1233 39.6925C84.7766 39.7141 84.6683 39.8008 84.6575 40.2774C84.6474 40.7826 84.6561 41.9287 84.6661 43.241L84.6683 43.5273L84.6466 46.7988C84.6575 47.4163 84.7333 47.6546 85.1775 47.7413C85.2641 47.763 85.2966 47.7954 85.275 47.9254C85.2533 48.0554 85.2208 48.0771 85.1341 48.0771C84.8416 48.0554 84.4408 48.0554 84.04 48.0554C83.7584 48.0554 83.2492 48.0554 82.9675 48.0771C82.8701 48.0879 82.8376 48.0446 82.8267 47.9363C82.8159 47.8171 82.8376 47.7846 82.9242 47.7629C83.3575 47.6438 83.4334 47.3513 83.4334 46.8097V40.2558C83.4334 39.8224 83.3359 39.6925 83.0434 39.6708C82.5667 39.6383 81.6351 39.6383 81.256 39.6708C80.9093 39.7033 80.7685 39.8874 80.6493 40.3858C80.6276 40.4724 80.5735 40.5158 80.4543 40.4941C80.3243 40.4724 80.281 40.4183 80.2918 40.3316C80.3677 39.8549 80.4218 39.335 80.4435 38.9125C80.4435 38.8258 80.4435 38.7825 80.4977 38.75C80.541 38.7067 80.5843 38.7067 80.6493 38.7392C81.104 38.9423 83.0794 38.9295 83.8593 38.9244C83.9527 38.9238 84.0289 38.9233 84.0833 38.9233C84.8958 38.9233 85.5674 38.9125 86.3582 38.88C86.8566 38.8583 87.1815 38.8258 87.409 38.685C87.474 38.6417 87.5065 38.6417 87.5715 38.6633C87.6365 38.685 87.6474 38.7175 87.6474 38.7933C87.6799 39.3025 87.734 39.8333 87.8315 40.3424C87.8423 40.4183 87.8098 40.4724 87.6907 40.4941C87.5715 40.5266 87.5065 40.5049 87.4849 40.4074C87.3332 39.8441 87.1165 39.6816 86.6941 39.66C86.3041 39.6491 85.5783 39.66 85.1233 39.6925ZM90.7131 43.8414C89.4131 43.029 88.7631 42.2707 88.7631 41.0682C88.7631 39.6166 89.8464 38.8583 91.4605 38.8692C92.088 38.8761 92.7101 38.9859 93.3021 39.1941C93.4863 39.2591 93.5296 39.3133 93.5296 39.5191L93.4971 40.6024C93.4971 40.6891 93.4646 40.7216 93.3346 40.7432C93.2046 40.7649 93.1613 40.7216 93.1396 40.6349C92.988 39.9308 92.4571 39.5625 91.5147 39.5625C90.6047 39.5625 89.9981 40.0066 89.9981 40.8299C89.9981 41.6532 90.4422 42.054 91.753 42.9315C93.2696 43.9606 93.8438 44.5023 93.8438 45.7047C93.8438 47.2971 92.7821 48.1421 91.2222 48.1421C90.5699 48.1328 89.9217 48.0381 89.2939 47.8604C89.0665 47.7954 89.0123 47.7088 89.034 47.5571C89.0556 47.1671 89.0448 46.6688 89.0015 46.2355C88.9906 46.1597 89.0231 46.1055 89.1423 46.073C89.2614 46.0297 89.3156 46.0514 89.3481 46.1272C89.6948 47.0696 90.3339 47.438 91.1355 47.438C92.0455 47.438 92.5763 46.9505 92.5763 46.0514C92.5763 45.1522 92.1647 44.7406 90.7131 43.8414ZM84.5167 36.2693C84.0833 36.2693 83.6609 36.3234 83.325 36.4318C83.2384 36.4643 83.1734 36.4318 83.1409 36.3126C83.0975 36.1718 83.1192 36.1176 83.2059 36.0851C83.6609 35.9226 83.8233 35.6518 83.8233 34.9802L83.8342 31.6328V28.7837C83.8342 27.9929 83.7475 27.7221 83.3467 27.538C83.2817 27.5163 83.2709 27.473 83.3034 27.3538C83.3359 27.2455 83.3792 27.2021 83.455 27.2238C83.715 27.278 84.1267 27.3213 84.43 27.3213C84.5922 27.3213 84.8202 27.3036 85.0915 27.2824C85.4904 27.2514 85.9832 27.213 86.4991 27.213C89.0123 27.213 91.1572 28.5671 91.1572 31.7845C91.1572 35.0993 89.229 36.4534 86.7591 36.4534C86.3537 36.4534 85.9626 36.405 85.5813 36.3579C85.2188 36.313 84.8651 36.2693 84.5167 36.2693ZM85.3616 27.9821C85.1775 28.0254 85.08 28.0688 85.08 28.2313C85.0366 30.7228 85.0366 32.6944 85.0475 34.4168C85.0583 35.2618 85.1775 35.4676 85.6866 35.6193C85.9466 35.706 86.4666 35.771 86.8024 35.771C88.6981 35.771 89.8898 34.3193 89.8898 31.8928C89.8898 29.3254 88.8823 27.8955 86.2716 27.8955C85.9791 27.8955 85.5891 27.928 85.3616 27.9821ZM73.4671 65.4314C73.478 65.6805 73.5321 66.233 73.5646 66.4822C73.5863 66.6013 73.5213 66.623 73.4454 66.6013C73.348 66.6122 73.3046 66.6122 73.283 66.5038C73.1963 66.2005 73.0988 65.9947 72.8821 65.9838C72.6871 65.973 72.3947 65.9838 72.1672 65.9947C72.0047 66.0055 71.9397 66.038 71.9397 66.2763L71.918 67.8796C71.9077 68.477 71.917 68.7904 71.9272 69.1363L71.9288 69.1904C71.9397 69.537 72.0588 69.6779 72.4163 69.7754C72.503 69.797 72.5138 69.8295 72.4922 69.9703C72.4705 70.122 72.4163 70.122 72.308 70.122L71.3872 70.1112L70.3148 70.122C70.2389 70.122 70.1848 70.122 70.1631 69.9703C70.1523 69.8295 70.1739 69.7754 70.2714 69.7537C70.6072 69.6779 70.7697 69.5695 70.7806 69.1579L70.8022 67.8796V66.2655C70.8022 66.0597 70.7697 65.9947 70.6181 65.9838H69.7839C69.6106 66.0055 69.5239 66.2222 69.459 66.4822C69.4373 66.558 69.4156 66.5905 69.2965 66.5797C69.1773 66.5688 69.1448 66.5363 69.1556 66.4605C69.163 66.3653 69.1728 66.2614 69.1829 66.1535C69.2029 65.9421 69.2243 65.7151 69.2315 65.5072C69.2315 65.453 69.2423 65.4097 69.3073 65.388C69.3615 65.3664 69.4048 65.3772 69.4698 65.3989C69.7839 65.4964 70.7481 65.4964 71.3655 65.4964L72.6113 65.4747C72.8288 65.4726 73.0445 65.436 73.2505 65.3664C73.3155 65.3447 73.348 65.3339 73.4021 65.3447C73.4454 65.3664 73.4671 65.3772 73.4671 65.4314ZM90.8972 69.3637H92.1105C92.1322 69.3637 92.1647 69.3854 92.1647 69.407V70.0462C92.1647 70.0787 92.143 70.1328 92.0888 70.1328H90.8972V72.6136C90.8972 72.6677 90.8755 72.7327 90.7997 72.7327H89.8789C89.7923 72.7327 89.7164 72.7002 89.7164 72.6136V70.1653H86.6941C86.5857 70.1653 86.5207 70.0678 86.5207 69.9487V69.8295C86.5207 69.6779 86.5207 69.5912 86.7049 69.3095C87.5888 67.9409 88.5699 66.6376 89.6406 65.4097C89.7489 65.2905 89.8356 65.2905 89.9439 65.2905H90.7564C90.8647 65.2905 90.8972 65.3122 90.8972 65.4097V69.3637ZM89.7164 69.3745V67.6521C89.7164 67.2188 89.7381 66.5147 89.7598 66.0922C88.9581 66.9588 88.0915 68.1829 87.4307 69.1904C87.3332 69.3204 87.3549 69.3745 87.4415 69.3745H89.7164ZM94.6021 65.7347C94.8452 65.6915 95.0917 65.6698 95.3387 65.6697C96.682 65.6697 97.7978 66.3305 97.8086 67.8796C97.8086 69.2445 96.7145 70.2953 95.3279 70.2953C93.7354 70.2953 92.6738 69.2987 92.6738 67.6846C92.7064 66.7615 93.0413 65.8747 93.6271 65.1606C94.5191 64.045 95.7334 63.2317 97.1045 62.8315C97.2236 62.799 97.2886 62.8315 97.3211 62.8965C97.3536 62.9831 97.3644 63.0806 97.2669 63.1348C96.1145 63.6814 95.1769 64.5961 94.6021 65.7347ZM93.9521 67.9229C93.9521 69.1254 94.6021 69.7429 95.3387 69.7429C96.0862 69.7429 96.4978 69.0171 96.487 68.0854C96.487 66.9046 95.8153 66.1897 94.6454 66.1897C94.4721 66.1897 94.3637 66.2113 94.2879 66.363C94.0712 66.7638 93.9521 67.2513 93.9521 67.9229ZM88.4057 59.7983C87.8748 59.7983 87.7449 59.7441 86.8457 58.2167L85.7516 56.3859C85.5566 56.0718 85.4374 56.0068 85.1558 55.9851C84.8927 55.9652 84.6286 55.9615 84.365 55.9743C84.2458 55.9743 84.1917 56.0176 84.1917 56.1584L84.1808 57.4367L84.1917 58.5308C84.1917 59.1158 84.2783 59.3216 84.6358 59.43C84.69 59.4516 84.7116 59.495 84.7008 59.5816C84.6791 59.7116 84.625 59.7333 84.5275 59.7333L83.5634 59.7224C83.2817 59.7224 82.8592 59.7224 82.5776 59.7441C82.5017 59.7549 82.4584 59.7224 82.4476 59.6033C82.4367 59.5058 82.4692 59.4625 82.5451 59.4408C82.8592 59.365 82.9351 59.17 82.9459 58.5525C82.9815 56.2525 82.9815 53.952 82.9459 51.652C82.9351 51.2403 82.7834 51.0236 82.4909 50.9045C82.4042 50.872 82.3934 50.807 82.4367 50.6878C82.4801 50.5578 82.5234 50.5362 82.6209 50.5578C82.9351 50.6337 83.2059 50.6553 83.5309 50.6445C83.6756 50.6401 83.8861 50.6268 84.112 50.6126C84.4439 50.5917 84.809 50.5687 85.0475 50.5687C87.0949 50.5687 88.4598 51.3595 88.4598 53.2011C88.4758 53.7218 88.3274 54.2343 88.0358 54.6659C87.7441 55.0976 87.3239 55.4265 86.8349 55.606C86.8317 55.6079 86.8285 55.6098 86.8253 55.6117C86.7757 55.6412 86.7374 55.664 86.7374 55.7251C86.7374 55.7662 86.7591 55.7987 86.7915 55.8472C86.8103 55.8753 86.8327 55.9088 86.8566 55.9526C87.5282 57.0901 88.2215 58.1842 88.7415 58.9425C88.9906 59.3108 89.1531 59.3975 89.3806 59.4516C89.4781 59.4733 89.5214 59.5166 89.4998 59.6358C89.4781 59.7766 89.4456 59.7983 89.3589 59.7983H88.4057ZM84.3325 55.3351C84.5383 55.3568 84.7983 55.3676 85.08 55.3676C86.4016 55.3676 87.2249 54.6635 87.2249 53.3419C87.2249 51.7169 86.2824 51.132 84.9716 51.132C84.7766 51.132 84.5383 51.1536 84.4083 51.1753C84.3 51.1861 84.235 51.2403 84.235 51.4028L84.1917 55.1618C84.1917 55.281 84.2242 55.3243 84.3325 55.3351ZM85.7408 64.5864C85.7408 65.2797 85.2533 65.8214 84.3108 66.2655C85.5349 66.753 85.9358 67.403 85.9249 68.1938C85.9249 69.3637 84.8741 70.2737 83.5634 70.2737C82.2309 70.2737 81.321 69.5154 81.321 68.5187C81.321 67.8146 81.7759 67.273 82.7076 66.7855C81.7543 66.363 81.2668 65.7889 81.2668 64.9222C81.2668 63.6656 82.3284 62.929 83.6284 62.929C84.9391 62.929 85.7408 63.6764 85.7408 64.5864ZM83.5634 63.3948C82.8592 63.3948 82.1984 63.8064 82.1984 64.5431C82.1984 65.1064 82.6426 65.5614 83.9317 66.0922C84.495 65.7239 84.8308 65.2255 84.8308 64.6514C84.8308 63.8281 84.2242 63.3948 83.5634 63.3948ZM82.3284 68.3779C82.3284 69.1362 82.8701 69.7754 83.65 69.7754C84.43 69.7754 84.8633 69.2229 84.8633 68.6379C84.8633 67.8904 84.4408 67.5763 83.0434 66.9805C82.5451 67.4246 82.3284 67.8038 82.3284 68.3779ZM97.7653 58.4333C97.7869 59.1591 97.8411 59.3325 98.2852 59.4191C98.3611 59.4408 98.3936 59.495 98.3827 59.6249C98.3719 59.7333 98.3286 59.7549 98.2527 59.7549C97.9819 59.7333 97.5919 59.7333 97.1911 59.7333C96.8336 59.7333 96.4003 59.7333 96.1187 59.7549C96.0428 59.7549 95.9887 59.7224 95.9778 59.6141C95.9562 59.495 95.9995 59.43 96.0862 59.4083C96.4436 59.3216 96.5411 59.0725 96.552 58.4767V55.1401L96.5628 51.8903C96.5628 51.1753 96.4653 51.002 96.0645 50.9045C95.9887 50.8828 95.9562 50.8503 95.9562 50.742C95.9562 50.6337 96.0103 50.5795 96.0862 50.5795C96.357 50.6012 96.7795 50.6012 97.1803 50.6012C97.4619 50.6012 97.9277 50.6012 98.2202 50.5795C98.2961 50.5687 98.3502 50.5903 98.3502 50.7203C98.3607 50.867 98.3205 50.8819 98.2395 50.9122L98.2311 50.9153C97.8628 51.0236 97.7869 51.1753 97.7869 51.8469V55.151L97.7653 58.4333ZM61.356 50.6012L62.4826 50.5795C62.5801 50.5795 62.6234 50.612 62.6234 50.7312C62.6234 50.8395 62.5909 50.9045 62.4934 50.9153C61.8651 51.002 61.6918 51.1645 61.6809 51.652L61.6701 53.8619V57.285L61.6918 58.9533L61.7026 59.6141C61.7026 59.8308 61.6051 59.9174 61.4535 59.9174C61.291 59.9174 61.2151 59.8416 61.0743 59.6574C61.0226 59.5902 60.9665 59.5162 60.9023 59.4313C60.6976 59.1609 60.41 58.781 59.9152 58.1625C58.9836 56.9926 57.1311 54.6093 55.4412 52.3778V56.2776L55.4304 57.48L55.4412 58.6067C55.452 59.1916 55.6037 59.3216 56.2753 59.3866C56.3512 59.3975 56.3837 59.43 56.3728 59.5816C56.362 59.7116 56.3295 59.7658 56.2537 59.7549L55.1596 59.7224H54.9429C54.6721 59.7224 54.1629 59.7333 53.8271 59.7549C53.7188 59.7549 53.6863 59.7224 53.6863 59.5708C53.6863 59.4408 53.7079 59.3975 53.8054 59.3866C54.4229 59.3216 54.5746 59.2025 54.5962 58.6067L54.5964 58.5933C54.6181 56.6759 54.6504 53.8151 54.6396 52.3561C54.6396 51.3053 54.5421 51.0995 53.7946 50.9586C53.6971 50.937 53.643 50.9045 53.6538 50.7528C53.6646 50.6012 53.6971 50.5687 53.8054 50.5687L54.7912 50.5903C55.0296 50.5903 55.4629 50.5687 55.7012 50.5362C55.9612 50.9911 56.2537 51.4028 56.6003 51.8578C57.212 52.6572 58.0098 53.6766 58.657 54.5035C59.1675 55.1558 59.5842 55.6883 59.7419 55.8984C59.8827 56.0928 60.0476 56.3067 60.2207 56.5314C60.4337 56.8078 60.6594 57.1006 60.8685 57.3934L60.8251 51.652C60.8251 51.197 60.5543 50.9803 60.0019 50.9153C59.8827 50.9045 59.8394 50.8503 59.8502 50.7312C59.861 50.6012 59.8935 50.5687 59.9694 50.5687L61.161 50.6012H61.356ZM106.356 50.3412C106.421 50.3628 106.432 50.3953 106.432 50.4712C106.451 50.9893 106.52 51.5043 106.637 52.0094C106.648 52.0853 106.616 52.1394 106.497 52.1611C106.377 52.1936 106.312 52.1719 106.291 52.0744C106.139 51.5111 105.922 51.3486 105.5 51.327C105.11 51.3161 104.384 51.327 103.929 51.3595C103.583 51.3811 103.474 51.4678 103.463 51.9444L103.453 55.2051L103.431 58.4767C103.442 59.0941 103.518 59.3325 103.962 59.4191C104.048 59.4408 104.081 59.4733 104.059 59.6033C104.037 59.7333 104.005 59.7549 103.918 59.7549C103.626 59.7333 103.225 59.7333 102.824 59.7333C102.543 59.7333 102.033 59.7333 101.752 59.7549C101.654 59.7658 101.622 59.7224 101.611 59.6141C101.6 59.495 101.622 59.4625 101.708 59.4408C102.142 59.3216 102.218 59.0291 102.218 58.4875V51.9336C102.218 51.5003 102.12 51.3703 101.828 51.3486C101.351 51.3161 100.419 51.3161 100.04 51.3486C99.6935 51.3811 99.5527 51.5653 99.4335 52.0636C99.4119 52.1503 99.3577 52.1936 99.2385 52.1719C99.1085 52.1503 99.0652 52.0961 99.076 52.0094C99.1519 51.5328 99.206 51.0128 99.2277 50.5903C99.2277 50.5037 99.2277 50.4603 99.2819 50.4278C99.3252 50.3845 99.3685 50.3845 99.4335 50.417C99.8882 50.6202 101.864 50.6073 102.643 50.6023C102.737 50.6017 102.813 50.6012 102.868 50.6012C103.68 50.6012 104.352 50.5903 105.142 50.5578C105.641 50.5362 105.966 50.5037 106.193 50.3628C106.258 50.3195 106.291 50.3195 106.356 50.3412ZM113.863 50.6012L114.795 50.5903C114.925 50.5795 114.957 50.612 114.946 50.742C114.946 50.8395 114.914 50.9045 114.827 50.9261C114.459 51.0128 114.318 51.1428 114.036 51.7061L112.888 53.9702C112.806 54.1291 112.724 54.2875 112.642 54.4444C112.356 54.9934 112.08 55.5241 111.87 55.9959C111.781 56.2028 111.782 56.3559 111.783 56.5042C111.783 56.519 111.783 56.5337 111.783 56.5484C111.775 57.3822 111.786 57.9978 111.791 58.3063C111.793 58.3986 111.794 58.4634 111.794 58.4983C111.805 59.1266 111.891 59.3325 112.314 59.4191C112.39 59.4408 112.433 59.4841 112.411 59.6033C112.39 59.7224 112.346 59.7441 112.27 59.7441C111.556 59.7009 110.84 59.7046 110.126 59.7549C110.05 59.7658 109.996 59.7224 109.985 59.6141C109.974 59.495 110.006 59.4408 110.093 59.4191C110.483 59.3216 110.559 59.0725 110.57 58.52V56.9492C110.57 56.5051 110.537 56.2884 110.472 56.1693C110.318 55.8601 110.129 55.5264 109.921 55.1588C109.691 54.7537 109.439 54.3075 109.183 53.8077C108.98 53.412 108.775 53.0363 108.577 52.6759C108.364 52.2863 108.161 51.9145 107.981 51.5545C107.775 51.1428 107.645 51.0128 107.266 50.9478C107.168 50.937 107.136 50.8828 107.136 50.7853C107.136 50.6553 107.179 50.5903 107.287 50.5903L108.208 50.6012H108.371L109.53 50.5903C109.66 50.5903 109.725 50.6445 109.714 50.7853C109.714 50.8828 109.681 50.9478 109.584 50.9586C109.248 51.0128 109.183 51.0561 109.183 51.1753C109.183 51.2324 109.242 51.3478 109.292 51.4485C109.3 51.4625 109.306 51.4762 109.313 51.4895L110.288 53.4285L111.285 55.411L112.205 53.6344L113.094 51.8903C113.129 51.8119 113.161 51.7455 113.188 51.6876C113.286 51.4816 113.332 51.3841 113.332 51.2403C113.332 51.067 113.202 50.9911 112.704 50.937C112.595 50.9153 112.552 50.8828 112.552 50.742C112.552 50.612 112.595 50.5795 112.682 50.5795C112.996 50.6012 113.375 50.6012 113.7 50.6012H113.863ZM66.3932 66.5147C66.3932 66.883 66.6207 67.0346 67.444 67.403C68.4082 67.8363 68.679 68.2588 68.6898 68.8546C68.6898 69.6562 68.0615 70.2195 67.0432 70.2195C66.6857 70.2195 66.1983 70.1653 65.8733 70.1003C65.6566 70.057 65.6133 69.9812 65.6241 69.9053C65.6241 69.734 65.5934 69.4457 65.5689 69.2167C65.5609 69.1418 65.5536 69.0732 65.5483 69.0171C65.5375 68.9521 65.5483 68.9087 65.6566 68.8762C65.7541 68.8437 65.8083 68.8762 65.8191 68.9087C66.0683 69.4937 66.5341 69.732 66.9999 69.732C67.444 69.732 67.6932 69.4612 67.6932 69.1254C67.6932 68.7571 67.4765 68.5729 66.6207 68.1829C65.7866 67.8038 65.3966 67.4138 65.3966 66.6988C65.3966 65.8755 66.0574 65.4422 67.0757 65.4422C67.5415 65.4422 67.9748 65.5072 68.2782 65.583C68.3865 65.6047 68.4407 65.6589 68.4407 65.7564V66.6663C68.4407 66.7205 68.419 66.7747 68.3215 66.7855C68.224 66.7963 68.1698 66.7746 68.1482 66.6988C67.9857 66.1897 67.6932 65.9297 67.1624 65.9297C66.6641 65.9297 66.3932 66.1897 66.3932 66.5147ZM81.2993 58.1192C81.2235 58.6067 81.1693 59.2133 81.1693 59.5924C81.1693 59.7333 81.126 59.7874 80.9201 59.8091C80.4839 59.7735 79.9599 59.7745 79.1618 59.7759C78.9887 59.7763 78.8027 59.7766 78.6019 59.7766C78.2798 59.7766 77.9824 59.7739 77.7061 59.7713C76.8862 59.7637 76.2524 59.7579 75.7095 59.8308C75.6229 59.8416 75.5687 59.7983 75.547 59.6899C75.5254 59.5925 75.5579 59.5275 75.6337 59.5058C76.0345 59.3758 76.1537 58.9858 76.1537 58.4983V51.652C76.1537 51.2728 76.0237 51.0778 75.6662 50.9478C75.5904 50.9153 75.547 50.8828 75.5687 50.7637C75.5904 50.6553 75.6229 50.6228 75.7204 50.6228L77.3886 50.6445H79.1977C79.2597 50.6445 79.3218 50.6446 79.3835 50.6447C79.9364 50.6457 80.4664 50.6466 80.7685 50.5687C80.8551 50.547 80.8876 50.5578 80.931 50.5903C80.9635 50.6228 80.9743 50.6553 80.9743 50.7203C80.9635 51.0995 80.9851 51.5328 81.0176 51.9011C81.0285 51.9661 81.0068 52.0094 80.8985 52.0311C80.7901 52.0528 80.7251 52.0311 80.7143 51.9661C80.606 51.5003 80.4543 51.3486 80.1293 51.3161C79.8152 51.2836 79.371 51.2728 78.9052 51.2728L77.6486 51.2836C77.4753 51.2836 77.4103 51.3595 77.4103 51.5111L77.3778 54.696C77.3778 54.826 77.4319 54.8693 77.5403 54.8693C78.3202 54.891 79.1869 54.8801 79.6852 54.8585C79.9885 54.8368 80.0968 54.696 80.1618 54.3818C80.1835 54.3168 80.2377 54.2843 80.3568 54.2952C80.476 54.3168 80.5085 54.3493 80.5085 54.4252C80.476 54.9343 80.4543 55.6385 80.4977 56.0718C80.4977 56.1584 80.4543 56.2018 80.346 56.2126C80.2268 56.2343 80.1618 56.2018 80.1402 56.1043C80.086 55.7793 79.9993 55.6493 79.7069 55.6385C79.1327 55.6059 78.3527 55.6168 77.5728 55.6385C77.4319 55.6385 77.3778 55.6926 77.3778 55.8443C77.3778 56.4726 77.3886 57.6534 77.4103 58.4767C77.4319 58.8775 77.5728 59.0075 77.8653 59.0508C78.1639 59.1023 78.5505 59.1146 78.8765 59.125L78.9269 59.1266C79.2735 59.1266 79.7827 59.0941 80.0752 59.04C80.5735 58.9425 80.7901 58.6392 80.9635 58.0542C80.9851 57.9784 81.0285 57.9459 81.1476 57.9675C81.2668 57.9892 81.3101 58.0325 81.2993 58.1192ZM64.5408 69.082C64.5625 69.0279 64.6058 69.0062 64.7142 69.0171C64.8441 69.0496 64.8658 69.0712 64.7791 69.212C64.7467 69.4504 64.7033 69.8728 64.6925 70.1112C64.6925 70.2087 64.6383 70.2303 64.5192 70.2195C64.2051 70.1978 63.6529 70.1978 62.8409 70.1978H62.8401C62.6844 70.1978 62.5379 70.1974 62.3997 70.1969C61.8839 70.1952 61.4833 70.1939 61.1501 70.2195C61.0093 70.2195 60.966 70.2087 60.9335 70.0678C60.9118 69.9379 60.9226 69.8837 61.0093 69.8512C61.2585 69.7754 61.356 69.6237 61.356 69.3854V66.2655C61.356 66.0813 61.2043 65.9297 61.0201 65.8647C60.9118 65.8322 60.901 65.7889 60.9335 65.6372C60.9768 65.4964 61.0093 65.4855 61.096 65.4964C61.486 65.5505 61.7893 65.5505 62.3526 65.5505H63.3384C63.7392 65.5505 64.1833 65.518 64.3458 65.4855C64.3525 65.4839 64.3593 65.482 64.3664 65.48C64.4057 65.4691 64.4516 65.4563 64.4975 65.4747C64.5517 65.4964 64.5625 65.518 64.5625 65.583C64.5625 65.8322 64.595 66.233 64.6167 66.493C64.6383 66.5797 64.6058 66.5905 64.4975 66.6122C64.3892 66.6338 64.3458 66.623 64.3242 66.5363C64.1942 66.1138 64.0858 66.0272 63.8584 66.0163L63.36 66.0055H62.6234C62.5476 66.0055 62.5151 66.038 62.5151 66.1138L62.5042 67.5113C62.5042 67.5871 62.5259 67.6196 62.5801 67.6196C62.9267 67.6304 63.4142 67.6196 63.6525 67.6088C63.7934 67.5979 63.9017 67.4896 63.9667 67.273C63.9883 67.1971 64.0208 67.1863 64.1292 67.1971C64.2267 67.208 64.2592 67.2405 64.2483 67.3163C64.2158 67.6738 64.205 68.1396 64.2375 68.4104C64.2483 68.4971 64.2483 68.5404 64.14 68.5621C64.0317 68.5837 63.9775 68.5512 63.9558 68.4754C63.88 68.2479 63.7934 68.1396 63.6525 68.1396L62.5909 68.1504C62.5259 68.1504 62.4934 68.1829 62.4934 68.2588L62.5042 69.3745C62.5259 69.5695 62.5692 69.6454 62.7209 69.6562L63.49 69.667C63.6855 69.6679 63.8808 69.6571 64.075 69.6345C64.2808 69.5912 64.4325 69.4287 64.5408 69.082ZM71.3764 59.4625C71.268 59.7549 71.1164 59.9174 70.8889 59.9174C70.6614 59.9174 70.5206 59.8199 70.3906 59.4408C70.0853 58.6702 69.8336 57.9679 69.5243 57.1048C69.3727 56.6817 69.2072 56.22 69.0148 55.6926C68.6826 54.7826 68.4033 53.9448 68.1481 53.1793C68.0206 52.7966 67.899 52.4319 67.7799 52.0853C67.4549 51.132 67.2924 50.9695 66.8482 50.9045C66.7616 50.8937 66.7291 50.8395 66.7399 50.7203C66.7507 50.5903 66.7941 50.5687 66.8807 50.5687C67.1948 50.5903 67.7472 50.5903 68.0614 50.5903H68.0615H68.2348L69.4806 50.5795C69.5998 50.5687 69.6323 50.612 69.6431 50.742C69.6539 50.8611 69.6106 50.9045 69.5023 50.9261C69.0473 50.9911 68.9173 51.0995 68.9173 51.3053C68.9407 51.5451 68.9916 51.7813 69.069 52.0094L69.9789 54.8152C70.3689 55.9418 70.7481 57.1009 71.0406 58.0434C71.4228 56.9596 71.8164 55.8798 72.2213 54.8043L73.1638 52.1719C73.3046 51.7603 73.3805 51.5111 73.3805 51.3378C73.3805 51.0886 73.2613 50.9695 72.7413 50.9261C72.633 50.9153 72.5897 50.8503 72.5897 50.7312C72.5897 50.6228 72.6547 50.5687 72.7413 50.5687L73.8029 50.5903H73.9763L75.0162 50.5795C75.1245 50.5795 75.157 50.6228 75.157 50.742C75.1462 50.8503 75.1245 50.9045 75.0054 50.9261C74.5287 51.002 74.3337 51.2836 74.0629 52.1286C73.8125 52.8511 73.5449 53.5822 73.1458 54.6723C73.0962 54.808 73.0444 54.9493 72.9905 55.0968C72.7796 55.6696 72.5892 56.1753 72.4021 56.6722C72.0797 57.5285 71.7671 58.3588 71.3764 59.4625ZM73.6015 69.1947C73.7152 69.081 73.8695 69.0171 74.0304 69.0171C74.1913 69.0171 74.3456 69.081 74.4594 69.1947C74.5732 69.3085 74.6371 69.4628 74.6371 69.6237C74.6371 69.7846 74.5732 69.9389 74.4594 70.0527C74.3456 70.1664 74.1913 70.2303 74.0304 70.2303C73.8695 70.2303 73.7152 70.1664 73.6015 70.0527C73.4877 69.9389 73.4238 69.7846 73.4238 69.6237C73.4238 69.4628 73.4877 69.3085 73.6015 69.1947ZM79.4252 69.6887L80.1402 69.797C80.2377 69.8079 80.281 69.8512 80.216 69.9812C80.1835 70.1328 80.1402 70.1545 80.0643 70.1545L78.5802 70.1437L77.1395 70.1653C77.0528 70.1653 76.9986 70.122 76.9878 69.992C76.977 69.862 77.0311 69.8079 77.1286 69.797L77.7461 69.6995C77.9194 69.6562 77.9844 69.537 77.9844 69.3095L78.0061 67.9554V66.6122C78.0061 66.3305 77.9303 66.1788 77.6594 66.1463C77.5401 66.1253 77.4116 66.1133 77.2858 66.1016C77.2176 66.0952 77.1501 66.089 77.0853 66.0813C77.0095 66.0705 76.977 66.0272 76.9878 65.8863C76.9878 65.7347 77.0311 65.713 77.107 65.713C77.5728 65.7347 78.1469 65.7347 78.5911 65.7347L80.0752 65.713C80.1618 65.713 80.216 65.7347 80.216 65.8972C80.216 66.0163 80.1943 66.0705 80.1185 66.0813L79.501 66.1572C79.306 66.1897 79.2194 66.3088 79.2194 66.5797L79.2085 67.9338V69.3312C79.2085 69.5479 79.2627 69.6562 79.4252 69.6887Z" fill="#252422"/>
</g>
<defs>
<clipPath id="clip0_336_5415">
<rect width="89.5879" height="91.2128" fill="white" transform="translate(35 0.173828)"/>
</clipPath>
</defs>
</svg>
