<svg width="65" height="65" viewBox="0 0 65 65" fill="none" xmlns="http://www.w3.org/2000/svg">
<path d="M65 25.9428H48.335L50.8414 23.4365C55.964 18.3139 55.964 10.0034 50.8414 4.88077L39.0572 16.665V13.1253C39.0572 5.87012 33.187 0 25.9428 0V16.665L23.4365 14.1586C18.3139 9.03602 10.0034 9.03602 4.88077 14.1586L16.665 25.9428H13.1253C5.87012 25.9428 0 31.813 0 39.0572H16.665L14.1586 41.5745C9.03602 46.6861 9.03602 54.9966 14.1586 60.1082L25.9428 48.335V51.8857C25.9428 59.1189 31.813 65 39.0572 65V48.335L41.5635 50.8524C46.6861 55.964 54.9856 55.964 60.1082 50.8524L48.335 39.0572H51.8857C59.1189 39.0572 65 33.187 65 25.9428ZM40.3543 37.2324V38.1448C40.3543 39.4309 40.3543 40.838 40.5852 41.6954H39.4749C37.3753 41.6954 35.6714 40.0135 35.6714 37.9139V37.2324C35.6714 35.3746 34.9898 34.6161 32.2966 34.6161H28.5591V41.6954C27.3389 41.6954 26.2396 41.2007 25.4482 40.4093C24.6457 39.6068 24.151 38.5075 24.151 37.2873V23.3046H34.1544C38.4196 23.3046 40.849 25.3932 40.849 28.5591C40.849 30.9335 39.4639 32.3186 37.6281 32.8902C38.3866 33.209 40.3543 33.9346 40.3543 37.2324Z" fill="#252422"/>
<rect x="21.0391" y="21.0391" width="23.8441" height="25.2467" fill="#252422"/>
</svg>
