<svg width="159" height="92" viewBox="0 0 159 92" fill="none" xmlns="http://www.w3.org/2000/svg">
<path fill-rule="evenodd" clip-rule="evenodd" d="M48 46.465C47.9936 39.5975 49.2573 2.236 79.2097 2.17389C109.169 2.12006 110.559 39.3389 110.572 46.1959C110.611 67.0147 102.231 90.1971 79.3764 90.2442C56.5226 90.295 48.0448 67.2838 48 46.465ZM51.77 46.1769C51.808 65.9549 57.6633 89.0417 79.3757 88.9969C101.09 88.9518 106.841 66.0283 106.802 46.2578C106.802 46.0983 106.802 45.9209 106.803 45.7265C106.816 37.9673 106.878 3.15153 79.1194 3.20514C51.5095 3.26503 51.718 37.5139 51.7667 45.5149C51.7682 45.761 51.7696 45.9822 51.77 46.1769Z" fill="#252422"/>
<path fill-rule="evenodd" clip-rule="evenodd" d="M92.5428 34.4231C92.9378 35.0328 93.3241 35.6291 93.6895 36.2104C97.1959 41.8029 100.07 47.2953 100.153 54.8859C100.216 60.1287 97.9913 60.0135 97.3958 57.0642C96.4919 52.6396 93.5002 46.774 92.7933 45.388C92.7586 45.32 92.7294 45.2628 92.7063 45.2171C92.1898 44.1958 91.1818 44.4462 91.4701 45.4862C91.5719 45.8363 91.6935 46.185 91.8151 46.5338C91.9232 46.8439 92.0314 47.1542 92.1258 47.4658C93.8235 53.0053 95.1624 59.162 94.3509 64.9593C94.201 66.019 93.9323 67.0651 93.5799 68.0686C93.3411 68.748 92.9907 69.3763 92.6408 70.0039C92.4277 70.3861 92.2147 70.768 92.0272 71.1609L91.9986 71.222C91.5435 72.1955 91.0141 73.3277 91.2777 74.4241C91.48 75.2359 92.2767 75.7083 92.969 76.1188C93.087 76.1888 93.202 76.257 93.3104 76.3247C93.6308 76.5204 95.2539 77.5887 94.6369 78.0626C94.3787 78.2626 94.0094 78.1963 93.6852 78.138C93.6011 78.1229 93.5201 78.1084 93.4448 78.0992C92.975 78.0457 92.5102 78.0374 92.04 78.0374C91.784 78.0374 91.5209 78.0886 91.2969 78.217C90.9318 78.4135 90.6992 78.7444 90.4681 79.0839C90.4267 79.1478 90.3863 79.2146 90.3455 79.2822C90.1461 79.6119 89.9357 79.9601 89.5458 80.0791C89.3346 80.1431 89.0975 80.1431 88.8987 80.0449C88.5249 79.8577 88.3109 79.5111 88.0961 79.1633C87.9096 78.8614 87.7226 78.5586 87.4299 78.3581C87.0456 78.0995 86.5585 78.0378 86.1038 78.0378C85.5883 78.0448 85.0745 78.0684 84.5575 78.0921C84.4361 78.0976 84.3145 78.1032 84.1927 78.1086C83.712 78.1364 83.776 77.6704 84.0113 77.4013C84.3271 77.0429 84.6858 76.7376 85.0577 76.4493C85.4136 76.1718 85.7773 75.9232 86.1408 75.6747C86.3877 75.5058 86.6346 75.337 86.8789 75.1593C87.27 74.8732 86.8344 74.1644 86.6485 73.9227C86.309 73.5019 85.8904 73.1435 85.3909 72.9384C84.2119 72.4434 82.8327 72.4434 81.5897 72.5518C80.2681 72.6696 78.9344 72.9734 77.6648 73.3141C77.6373 73.3211 77.5984 73.3305 77.5499 73.3422C76.9194 73.4949 74.674 74.0386 74.9775 74.7384C75.023 74.8415 75.0823 74.9333 75.1414 75.0249C75.1903 75.1006 75.239 75.1761 75.2798 75.2575C75.4785 75.6528 75.6769 76.0484 75.8436 76.4493L75.8541 76.4759C76.0212 76.8997 76.2776 77.5503 75.9012 77.9204C75.6018 78.2251 75.1248 78.1651 74.7102 78.113C74.6015 78.0993 74.497 78.0862 74.4012 78.0803C74.2866 78.0745 74.1703 78.0671 74.053 78.0597C73.3101 78.0125 72.525 77.9625 71.8547 78.2964C71.4639 78.4948 71.1048 78.7812 70.7785 79.0583C70.6925 79.1309 70.6081 79.2057 70.5239 79.2804C70.1614 79.6017 69.801 79.9213 69.3221 80.0536C68.8222 80.1966 68.4236 80.0069 68.3984 79.443C68.3961 79.3967 68.3943 79.3503 68.3925 79.304C68.3738 78.8206 68.3555 78.3474 67.8409 78.1447C67.4887 78.0099 67.1108 78.0313 66.743 78.0521C66.6682 78.0563 66.5937 78.0605 66.52 78.0634C66.4299 78.0663 66.3373 78.0772 66.2442 78.0882C66.072 78.1084 65.8975 78.129 65.7314 78.0999C65.1792 78.0099 65.3595 77.6328 65.7182 77.3915C65.9207 77.2549 66.1419 77.1552 66.363 77.0556C66.5338 76.9787 66.7044 76.9018 66.8663 76.808C67.4761 76.4681 68.0908 76.1459 68.7198 75.8406C68.9059 75.7522 69.0861 75.6595 69.2675 75.5661C69.5109 75.441 69.7565 75.3146 70.0215 75.1958C70.0668 75.1753 70.1167 75.154 70.1693 75.1316C70.5986 74.9487 71.2066 74.6896 70.9897 74.1302C70.8523 73.7671 70.5533 73.5376 70.2566 73.3098C70.2078 73.2724 70.159 73.235 70.1111 73.197C69.5272 72.7408 69.0082 72.3192 68.5203 71.7455C68.0336 71.1621 67.6173 70.5176 67.2574 69.8468C66.8027 68.995 66.4436 68.0893 66.1673 67.1671C65.8278 66.063 65.5846 64.9356 65.4178 63.786C65.2116 62.3812 65.1287 60.9376 65.1092 59.5133C65.0436 54.4541 65.6562 51.0675 66.052 48.8801C66.1195 48.5065 66.1808 48.1678 66.2313 47.8618C66.4504 46.5361 65.4818 46.7687 65.1732 47.5313C63.8651 50.8371 62.5958 54.6916 62.6406 58.2575C62.679 61.2711 59.7877 60.3738 59.7169 54.9608C59.6028 46.2128 64.2599 39.6923 68.2566 34.0964C71.2611 29.8897 73.8924 26.2056 73.8429 22.4905C73.8365 21.8995 73.7917 21.3187 73.657 20.733C73.1827 18.7259 71.9518 17.1332 70.4058 15.7875C69.5694 15.0586 69.0742 14.71 68.3977 14.2337C68.1509 14.0599 67.8799 13.8691 67.5593 13.6367C67.495 13.5902 67.4127 13.5346 67.319 13.4713C66.6173 12.9975 65.2748 12.091 66.0389 11.3243C66.3543 11.0092 67.2865 11.2276 67.7916 11.3459C67.8623 11.3624 67.9246 11.377 67.9756 11.3879C68.3855 11.4779 68.6371 11.5375 68.8979 11.5994C69.127 11.6537 69.3633 11.7098 69.7204 11.7895C71.0092 12.0764 72.0738 12.1396 73.3942 11.9604C74.3018 11.8307 75.1808 11.5536 76.0575 11.2773C76.2771 11.208 76.4965 11.1389 76.7162 11.0721C77.6459 10.7947 78.6145 10.6426 79.5883 10.6426C80.6144 10.6426 81.7866 10.9486 82.6923 11.4142C83.546 11.8622 84.4043 12.5522 85.0065 13.2975C86.755 15.4331 86.9114 18.2077 87.0617 20.8719C87.0911 21.394 87.1203 21.9118 87.1612 22.4197C87.5072 26.6499 90.1797 30.7753 92.5428 34.4231ZM87.1603 69.7283C91.8284 69.5126 91.406 62.9098 91.0153 59.0827C90.8049 57.0929 90.2598 55.1707 89.7143 53.2473C89.3064 51.809 88.8984 50.37 88.6299 48.9016C88.0641 45.8183 87.6757 42.5916 87.5729 39.4567C87.5648 39.2163 87.5576 38.9727 87.5504 38.7266C87.4344 34.7963 87.2996 30.2325 83.3449 28.2066C81.4869 27.2591 78.838 27.331 76.9525 28.2709C75.2281 29.1401 74.0533 30.7715 73.2718 32.4741C72.2009 34.8053 71.6043 37.287 71.0276 39.7767C70.373 42.5912 69.7643 45.4223 69.3852 48.2903C69.1549 50.0199 68.9689 51.7507 68.8665 53.4887C68.719 55.9015 68.719 58.3186 68.8665 60.7235C68.8758 60.8711 68.8848 61.0193 68.8938 61.1679C69.016 63.1829 69.1436 65.2853 69.9503 67.1468C70.7125 68.9126 72.0601 69.9361 73.8741 70.2662C75.673 70.5852 76.8237 70.2477 78.1884 69.8474C79.2366 69.54 80.4109 69.1956 82.102 69.0831C83.44 68.9896 84.5196 69.247 85.4327 69.4646C86.0817 69.6193 86.6466 69.754 87.1603 69.7283ZM83.622 23.6545C85.0253 22.2045 85.0761 18.0548 84.2178 17.043C83.7289 16.4682 83.5237 16.8634 83.4857 17.043C82.7468 20.6397 80.2482 21.8649 78.3507 22.7953C77.7147 23.1072 77.1462 23.386 76.7342 23.7098C75.6316 24.5699 75.5544 25.7813 76.6958 25.5016C77.8947 25.2065 79.0748 24.9381 80.2993 24.7581C80.3996 24.7443 80.5023 24.7309 80.6068 24.7172C81.65 24.5805 82.8689 24.4209 83.622 23.6545ZM81.9096 17.0509C81.0382 18.3943 79.3887 18.8792 78.2406 18.1357C77.0869 17.3821 76.8557 15.6807 77.7343 14.335C78.6069 12.9904 80.2481 12.5071 81.4011 13.2588C82.5567 14.0041 82.7806 15.7063 81.9096 17.0509Z" fill="#252422"/>
<path d="M79.3183 15.5086C79.755 14.8811 80.5108 14.6488 81.0171 14.997C81.5257 15.338 81.5814 16.1285 81.1538 16.7647C80.7224 17.3907 79.9601 17.6229 79.4527 17.2838C78.9528 16.9337 78.8892 16.1455 79.3183 15.5086Z" fill="#252422"/>
</svg>
