<svg width="152" height="19" viewBox="0 0 152 19" fill="none" xmlns="http://www.w3.org/2000/svg">
<path d="M24.3517 15V2.71078H28.9622C29.908 2.71078 30.6998 2.87573 31.3376 3.20565C31.9809 3.53556 32.4675 3.99743 32.7974 4.59128C33.1274 5.17962 33.2923 5.86419 33.2923 6.64498C33.2923 7.43127 33.1246 8.11309 32.7892 8.69043C32.4593 9.26778 31.9699 9.71316 31.3211 10.0266C30.6723 10.34 29.875 10.4967 28.9292 10.4967H25.6549V8.65744H28.6241C29.1794 8.65744 29.633 8.58046 29.9849 8.4265C30.3424 8.27254 30.6035 8.0471 30.7685 7.75018C30.9389 7.44776 31.0242 7.07936 31.0242 6.64498C31.0242 6.21059 30.9389 5.83944 30.7685 5.53153C30.598 5.21811 30.3369 4.98167 29.9849 4.82221C29.633 4.65726 29.1767 4.57478 28.6158 4.57478H26.5786V15H24.3517ZM31.2551 15L28.2777 9.42449H30.7025L33.7459 15H31.2551ZM36.2945 15H33.9109L38.2492 2.71078H40.9875L45.3176 15H42.9422L39.6596 5.2346H39.5606L36.2945 15ZM36.377 10.1833H42.8515V11.9648H36.377V10.1833ZM51.0828 15.165C49.9556 15.165 48.9631 14.9093 48.1054 14.3979C47.2531 13.8865 46.5878 13.1607 46.1094 12.2205C45.631 11.2802 45.3918 10.164 45.3918 8.87188C45.3918 7.55224 45.6365 6.41954 46.1259 5.47379C46.6208 4.52804 47.2916 3.80499 48.1384 3.30462C48.9851 2.79875 49.9446 2.54582 51.0168 2.54582C51.6987 2.54582 52.331 2.6448 52.9138 2.84274C53.5022 3.04069 54.0245 3.32386 54.4809 3.69227C54.9373 4.05517 55.3112 4.4868 55.6026 4.98717C55.8995 5.48754 56.0975 6.03739 56.1965 6.63673H53.9283C53.8293 6.31232 53.6919 6.02089 53.5159 5.76246C53.3455 5.50403 53.1365 5.28409 52.8891 5.10264C52.6472 4.91569 52.3722 4.77548 52.0643 4.682C51.7564 4.58853 51.4155 4.54179 51.0416 4.54179C50.3873 4.54179 49.8017 4.70949 49.2848 5.04491C48.7679 5.37482 48.361 5.86144 48.0641 6.50477C47.7727 7.1426 47.627 7.92339 47.627 8.84714C47.627 9.77639 47.7727 10.5627 48.0641 11.206C48.3555 11.8493 48.7624 12.3387 49.2848 12.6741C49.8072 13.004 50.412 13.169 51.0993 13.169C51.7206 13.169 52.2595 13.0508 52.7159 12.8143C53.1723 12.5724 53.5242 12.2315 53.7716 11.7916C54.019 11.3517 54.1428 10.8321 54.1428 10.2328L54.6541 10.3152H51.3138V8.57496H56.3037V10.0431C56.3037 11.0988 56.081 12.0088 55.6356 12.7731C55.1902 13.5374 54.5716 14.1285 53.7799 14.5464C52.9936 14.9588 52.0945 15.165 51.0828 15.165ZM63.1658 15.165C62.0936 15.165 61.1286 14.9148 60.2709 14.4144C59.4186 13.914 58.745 13.1937 58.2502 12.2535C57.7608 11.3132 57.5161 10.1833 57.5161 8.86364C57.5161 7.53849 57.7608 6.40579 58.2502 5.46554C58.745 4.5198 59.4186 3.79674 60.2709 3.29637C61.1286 2.79601 62.0936 2.54582 63.1658 2.54582C64.2436 2.54582 65.2058 2.79601 66.0526 3.29637C66.8994 3.79674 67.5702 4.5198 68.065 5.46554C68.5599 6.40579 68.8073 7.53849 68.8073 8.86364C68.8073 10.1833 68.5599 11.3132 68.065 12.2535C67.5702 13.1937 66.8994 13.914 66.0526 14.4144C65.2058 14.9148 64.2436 15.165 63.1658 15.165ZM63.1658 13.169C63.8312 13.169 64.4195 13.004 64.9309 12.6741C65.4422 12.3442 65.8436 11.8603 66.1351 11.2225C66.4265 10.5792 66.5722 9.79289 66.5722 8.86364C66.5722 7.92889 66.4265 7.13985 66.1351 6.49652C65.8436 5.85319 65.4422 5.36657 64.9309 5.03666C64.4195 4.70675 63.8312 4.54179 63.1658 4.54179C62.5005 4.54179 61.9094 4.70675 61.3926 5.03666C60.8812 5.36657 60.4798 5.85319 60.1884 6.49652C59.897 7.13985 59.7513 7.92889 59.7513 8.86364C59.7513 9.79289 59.897 10.5792 60.1884 11.2225C60.4798 11.8603 60.8812 12.3442 61.3926 12.6741C61.9094 13.004 62.5005 13.169 63.1658 13.169ZM80.3873 2.71078V15H78.3913L72.6096 6.62848H72.5024V15H70.2755V2.71078H72.2714L78.0531 11.0823H78.1603V2.71078H80.3873ZM81.6327 4.57478V2.71078H91.4311V4.57478H87.6371V15H85.4349V4.57478H81.6327ZM92.6765 15V2.71078H94.9034V7.91514H100.594V2.71078H102.821V15H100.594V9.78739H94.9034V15H92.6765ZM104.603 15V2.71078H112.603V4.57478H106.83V7.8739H112.174V9.71316H106.83V13.136H112.636V15H104.603ZM114.236 2.71078H116.966L120.612 11.6102H120.752L124.406 2.71078H127.169V15H124.983V6.55425H124.884L121.47 14.9588H119.869L116.496 6.53776H116.381V15H114.236V2.71078ZM130.534 15H128.15L132.489 2.71078H135.227L139.557 15H137.182L133.899 5.2346H133.8L130.534 15ZM130.616 10.1833H137.091V11.9648H130.616V10.1833ZM145.256 15.165C144.178 15.165 143.213 14.9148 142.361 14.4144C141.514 13.914 140.846 13.1937 140.357 12.2535C139.873 11.3132 139.631 10.1833 139.631 8.86364C139.631 7.53849 139.876 6.40579 140.365 5.46554C140.86 4.5198 141.531 3.79674 142.378 3.29637C143.23 2.79601 144.189 2.54582 145.256 2.54582C145.933 2.54582 146.565 2.64205 147.153 2.83449C147.747 3.02694 148.275 3.31012 148.737 3.68402C149.199 4.05242 149.575 4.50605 149.867 5.04491C150.164 5.57826 150.359 6.18585 150.452 6.86767H148.209C148.148 6.49377 148.03 6.16386 147.854 5.87793C147.684 5.59201 147.469 5.35007 147.211 5.15213C146.958 4.94868 146.669 4.79747 146.345 4.6985C146.02 4.59403 145.671 4.54179 145.297 4.54179C144.627 4.54179 144.033 4.70949 143.516 5.04491C142.999 5.37482 142.595 5.86419 142.303 6.51301C142.012 7.15634 141.866 7.93988 141.866 8.86364C141.866 9.79839 142.012 10.5874 142.303 11.2308C142.6 11.8686 143.005 12.3525 143.516 12.6824C144.033 13.0068 144.624 13.169 145.289 13.169C145.658 13.169 146.001 13.1223 146.32 13.0288C146.639 12.9298 146.928 12.7841 147.186 12.5916C147.45 12.3937 147.667 12.1573 147.838 11.8823C148.014 11.6019 148.137 11.2802 148.209 10.9173H150.452C150.37 11.5057 150.188 12.0583 149.908 12.5751C149.633 13.0865 149.27 13.5374 148.819 13.9278C148.374 14.3127 147.852 14.6151 147.252 14.835C146.653 15.055 145.988 15.165 145.256 15.165Z" fill="#252422"/>
<g clip-path="url(#clip0_368_3283)">
<path d="M10.4095 8.41131C10.4095 8.82951 10.1526 9.0416 9.56412 9.0416H8.3125V7.79297H9.57009C10.1466 7.79297 10.4095 8.01402 10.4095 8.41131Z" fill="#252422"/>
<path d="M18.2158 7.60146H13.6873L14.3683 6.92038C15.7604 5.52837 15.7604 3.27007 14.3683 1.87806L11.1661 5.08029V4.11843C11.1661 2.1469 9.57097 0.551758 7.60243 0.551758V5.08029L6.92136 4.39922C5.52934 3.0072 3.27105 3.0072 1.87903 4.39922L5.08127 7.60146H4.1194C2.14788 7.60146 0.552734 9.1966 0.552734 11.1651H5.08127L4.4002 11.8492C3.00818 13.2382 3.00818 15.4965 4.4002 16.8855L7.60243 13.6863V14.6512C7.60243 16.6167 9.19758 18.2148 11.1661 18.2148V13.6863L11.8472 14.3704C13.2392 15.7594 15.4945 15.7594 16.8865 14.3704L13.6873 11.1651H14.6521C16.6177 11.1651 18.2158 9.56999 18.2158 7.60146ZM11.5186 10.6693V10.9172C11.5186 11.2667 11.5186 11.6491 11.5813 11.8821H11.2796C10.7091 11.8821 10.2461 11.425 10.2461 10.8545V10.6693C10.2461 10.1644 10.0609 9.95832 9.32901 9.95832H8.31338V11.8821C7.9818 11.8821 7.68309 11.7476 7.46801 11.5326C7.24995 11.3145 7.11552 11.0158 7.11552 10.6842V6.88454H9.83384C10.9929 6.88454 11.653 7.4521 11.653 8.3124C11.653 8.95763 11.2766 9.33401 10.7778 9.48934C10.9839 9.57597 11.5186 9.77312 11.5186 10.6693Z" fill="#252422"/>
</g>
<defs>
<clipPath id="clip0_368_3283">
<rect width="18.7683" height="18.7683" fill="white"/>
</clipPath>
</defs>
</svg>
