<svg width="476" height="136" viewBox="0 0 476 136" fill="none" xmlns="http://www.w3.org/2000/svg">
<path d="M175.69 111V22.4279H208.919C215.735 22.4279 221.442 23.6168 226.039 25.9946C230.676 28.3723 234.183 31.7012 236.561 35.9812C238.938 40.2216 240.127 45.1555 240.127 50.7829C240.127 56.4499 238.919 61.364 236.501 65.5251C234.123 69.6862 230.596 72.8962 225.92 75.1551C221.244 77.4139 215.497 78.5434 208.681 78.5434H185.082V65.2873H206.482C210.484 65.2873 213.754 64.7325 216.29 63.6228C218.866 62.5132 220.748 60.8884 221.937 58.7484C223.166 56.5688 223.78 53.9136 223.78 50.7829C223.78 47.6521 223.166 44.9771 221.937 42.7579C220.709 40.499 218.826 38.7949 216.29 37.6457C213.754 36.4568 210.464 35.8623 206.422 35.8623H191.739V111H175.69ZM225.444 111L203.985 70.8156H221.462L243.397 111H225.444ZM261.765 111H244.586L275.853 22.4279H295.589L326.797 111H309.677L286.018 40.6179H285.305L261.765 111ZM262.359 76.2845H309.023V89.1245H262.359V76.2845ZM368.349 112.189C360.225 112.189 353.071 110.346 346.889 106.661C340.747 102.975 335.952 97.7439 332.504 90.9673C329.056 84.1906 327.332 76.1458 327.332 66.8328C327.332 57.3217 329.096 49.1581 332.623 42.3418C336.189 35.5255 341.024 30.3142 347.127 26.7079C353.23 23.062 360.145 21.239 367.873 21.239C372.787 21.239 377.345 21.9524 381.545 23.379C385.786 24.8057 389.551 26.8466 392.84 29.5018C396.129 32.1173 398.824 35.2283 400.924 38.8346C403.064 42.4408 404.491 46.4038 405.204 50.7234H388.857C388.144 48.3853 387.153 46.2849 385.885 44.4223C384.656 42.5597 383.15 40.9745 381.367 39.6668C379.623 38.3194 377.642 37.3088 375.423 36.6351C373.203 35.9614 370.746 35.6246 368.051 35.6246C363.336 35.6246 359.115 36.8333 355.39 39.2507C351.665 41.6284 348.732 45.1357 346.592 49.7723C344.492 54.3693 343.441 59.9967 343.441 66.6545C343.441 73.3519 344.492 79.0189 346.592 83.6556C348.692 88.2923 351.625 91.8193 355.39 94.2367C359.155 96.6145 363.514 97.8034 368.468 97.8034C372.946 97.8034 376.829 96.9513 380.119 95.2472C383.408 93.5035 385.944 91.0465 387.728 87.8761C389.511 84.7058 390.403 80.9608 390.403 76.6412L394.088 77.2356H370.013V64.6928H405.977V75.2739C405.977 82.8828 404.372 89.4415 401.162 94.95C397.952 100.459 393.494 104.719 387.787 107.731C382.12 110.703 375.641 112.189 368.349 112.189ZM428.292 44.464C428.292 41.7534 428.946 39.2924 430.254 37.081C431.562 34.8697 433.321 33.1102 435.533 31.8024C437.768 30.4708 440.229 29.8169 442.916 29.8407C445.293 29.8169 447.481 30.3282 449.478 31.3744C451.476 32.3968 453.116 33.7997 454.4 35.5831C455.708 37.3664 456.493 39.3756 456.754 41.6107H449.05C448.789 40.3267 448.064 39.2686 446.875 38.4364C445.71 37.6042 444.39 37.188 442.916 37.188C441.608 37.188 440.395 37.509 439.278 38.151C438.184 38.793 437.304 39.6728 436.638 40.7904C435.996 41.8842 435.663 43.0968 435.64 44.4284C435.663 45.7599 435.996 46.9726 436.638 48.0664C437.304 49.1601 438.184 50.0399 439.278 50.7057C440.395 51.3477 441.608 51.6687 442.916 51.6687C444.414 51.6687 445.698 51.2645 446.768 50.456C447.861 49.6238 448.551 48.5657 448.836 47.2817H456.505C456.267 49.5168 455.506 51.526 454.222 53.3094C452.962 55.0689 451.357 56.4718 449.407 57.518C447.457 58.5405 445.293 59.0517 442.916 59.0517C440.229 59.0517 437.768 58.3978 435.533 57.09C433.321 55.7822 431.562 54.0227 430.254 51.8114C428.946 49.5763 428.292 47.1271 428.292 44.464ZM442.666 71.856C438.909 71.856 435.366 71.1427 432.037 69.716C428.732 68.2893 425.819 66.3277 423.299 63.831C420.779 61.3106 418.805 58.3978 417.378 55.0927C415.975 51.7876 415.274 48.2447 415.274 44.464C415.298 40.6834 416.023 37.1405 417.45 33.8354C418.876 30.5065 420.838 27.5937 423.335 25.0971C425.855 22.5766 428.768 20.615 432.073 19.2121C435.378 17.7854 438.909 17.0721 442.666 17.0721C446.47 17.0721 450.025 17.7854 453.33 19.2121C456.635 20.615 459.536 22.5766 462.033 25.0971C464.553 27.5937 466.515 30.5065 467.918 33.8354C469.345 37.1405 470.058 40.6834 470.058 44.464C470.082 48.2447 469.38 51.7876 467.954 55.0927C466.551 58.3978 464.589 61.3106 462.069 63.831C459.572 66.3277 456.659 68.2893 453.33 69.716C450.025 71.1427 446.47 71.856 442.666 71.856ZM442.666 63.189C445.282 63.189 447.719 62.7016 449.978 61.7267C452.26 60.7518 454.258 59.4084 455.97 57.6964C457.705 55.9844 459.049 53.9989 460 51.74C460.975 49.4811 461.462 47.0558 461.462 44.464C461.462 41.8723 460.975 39.435 460 37.1524C459.025 34.8697 457.67 32.8724 455.934 31.1604C454.222 29.4484 452.237 28.105 449.978 27.1301C447.719 26.1552 445.282 25.6677 442.666 25.6677C440.098 25.6677 437.685 26.1552 435.426 27.1301C433.167 28.105 431.181 29.4603 429.469 31.1961C427.757 32.9081 426.414 34.9054 425.439 37.188C424.464 39.4469 423.977 41.8723 423.977 44.464C423.953 47.032 424.417 49.4574 425.368 51.74C426.343 53.9989 427.686 55.9844 429.398 57.6964C431.134 59.4084 433.131 60.7518 435.39 61.7267C437.673 62.7016 440.098 63.189 442.666 63.189Z" fill="#252422"/>
<path d="M75.0238 60.6236C75.0238 63.6377 73.1722 65.1663 68.931 65.1663H59.9102V56.167H68.974C73.1292 56.167 75.0238 57.7602 75.0238 60.6236Z" fill="#252422"/>
<path d="M131.287 54.7868H98.6489L103.558 49.8781C113.59 39.8454 113.59 23.5693 103.558 13.5366L80.4782 36.616V29.6836C80.4782 15.4742 68.9815 3.97754 54.7936 3.97754V36.616L49.885 31.7073C39.8523 21.6747 23.5761 21.6747 13.5434 31.7073L36.6229 54.7868H29.6904C15.481 54.7868 3.98438 66.2835 3.98438 80.4713H36.6229L31.7142 85.4016C21.6815 95.4127 21.6815 111.689 31.7142 121.7L54.7936 98.6421V105.596C54.7936 119.762 66.2903 131.281 80.4782 131.281V98.6421L85.3869 103.572C95.4195 113.583 111.674 113.583 121.707 103.572L98.6489 80.4713H105.603C119.769 80.4713 131.287 68.9747 131.287 54.7868ZM83.0186 76.8975V78.6844C83.0186 81.2033 83.0186 83.9591 83.4707 85.6384H81.2963C77.1842 85.6384 73.8471 82.3444 73.8471 78.2323V76.8975C73.8471 73.259 72.5123 71.7735 67.2376 71.7735H59.9176V85.6384C57.5279 85.6384 55.3749 84.6696 53.8248 83.1194C52.2532 81.5478 51.2844 79.3949 51.2844 77.0051V49.6198H70.8761C79.2295 49.6198 83.9874 53.7103 83.9874 59.9108C83.9874 64.5611 81.2748 67.2738 77.6794 68.3934C79.1649 69.0177 83.0186 70.4387 83.0186 76.8975Z" fill="#252422"/>
</svg>
