<svg width="160" height="20" viewBox="0 0 160 20" fill="currentcolor" xmlns="http://www.w3.org/2000/svg">
<path d="M24.3517 15.6162V3.32699H28.9622C29.908 3.32699 30.6998 3.49194 31.3376 3.82186C31.9809 4.15177 32.4675 4.61365 32.7974 5.20749C33.1274 5.79583 33.2923 6.4804 33.2923 7.26119C33.2923 8.04748 33.1246 8.7293 32.7892 9.30664C32.4593 9.88399 31.9699 10.3294 31.3211 10.6428C30.6723 10.9562 29.875 11.1129 28.9292 11.1129H25.6549V9.27365H28.6241C29.1794 9.27365 29.633 9.19667 29.9849 9.04271C30.3424 8.88876 30.6035 8.66332 30.7685 8.36639C30.9389 8.06398 31.0242 7.69557 31.0242 7.26119C31.0242 6.82681 30.9389 6.45565 30.7685 6.14774C30.598 5.83432 30.3369 5.59788 29.9849 5.43843C29.633 5.27347 29.1767 5.19099 28.6158 5.19099H26.5786V15.6162H24.3517ZM31.2551 15.6162L28.2777 10.0407H30.7025L33.7459 15.6162H31.2551ZM36.2945 15.6162H33.9109L38.2492 3.32699H40.9875L45.3176 15.6162H42.9422L39.6596 5.85082H39.5606L36.2945 15.6162ZM36.377 10.7995H42.8515V12.581H36.377V10.7995ZM51.0828 15.7812C49.9556 15.7812 48.9631 15.5255 48.1054 15.0141C47.2531 14.5028 46.5878 13.777 46.1094 12.8367C45.631 11.8965 45.3918 10.7803 45.3918 9.4881C45.3918 8.16845 45.6365 7.03575 46.1259 6.09C46.6208 5.14425 47.2916 4.4212 48.1384 3.92083C48.9851 3.41497 49.9446 3.16203 51.0168 3.16203C51.6987 3.16203 52.331 3.26101 52.9138 3.45895C53.5022 3.6569 54.0245 3.94008 54.4809 4.30848C54.9373 4.67138 55.3112 5.10301 55.6026 5.60338C55.8995 6.10375 56.0975 6.6536 56.1965 7.25294H53.9283C53.8293 6.92853 53.6919 6.63711 53.5159 6.37867C53.3455 6.12024 53.1365 5.9003 52.8891 5.71885C52.6472 5.5319 52.3722 5.39169 52.0643 5.29821C51.7564 5.20474 51.4155 5.158 51.0416 5.158C50.3873 5.158 49.8017 5.32571 49.2848 5.66112C48.7679 5.99103 48.361 6.47765 48.0641 7.12098C47.7727 7.75881 47.627 8.5396 47.627 9.46335C47.627 10.3926 47.7727 11.1789 48.0641 11.8222C48.3555 12.4656 48.7624 12.9549 49.2848 13.2903C49.8072 13.6202 50.412 13.7852 51.0993 13.7852C51.7207 13.7852 52.2595 13.667 52.7159 13.4305C53.1723 13.1886 53.5242 12.8477 53.7716 12.4078C54.019 11.9679 54.1428 11.4483 54.1428 10.849L54.6541 10.9315H51.3138V9.19117H56.3037V10.6593C56.3037 11.715 56.081 12.625 55.6356 13.3893C55.1902 14.1536 54.5716 14.7447 53.7799 15.1626C52.9936 15.575 52.0946 15.7812 51.0828 15.7812ZM63.1658 15.7812C62.0936 15.7812 61.1286 15.531 60.2709 15.0306C59.4186 14.5303 58.745 13.8099 58.2502 12.8697C57.7608 11.9294 57.5161 10.7995 57.5161 9.47985C57.5161 8.1547 57.7608 7.022 58.2502 6.08175C58.745 5.13601 59.4186 4.41295 60.2709 3.91258C61.1286 3.41222 62.0936 3.16203 63.1658 3.16203C64.2436 3.16203 65.2058 3.41222 66.0526 3.91258C66.8994 4.41295 67.5702 5.13601 68.065 6.08175C68.5599 7.022 68.8073 8.1547 68.8073 9.47985C68.8073 10.7995 68.5599 11.9294 68.065 12.8697C67.5702 13.8099 66.8994 14.5303 66.0526 15.0306C65.2058 15.531 64.2436 15.7812 63.1658 15.7812ZM63.1658 13.7852C63.8312 13.7852 64.4195 13.6202 64.9309 13.2903C65.4422 12.9604 65.8436 12.4765 66.1351 11.8387C66.4265 11.1954 66.5722 10.4091 66.5722 9.47985C66.5722 8.5451 66.4265 7.75606 66.1351 7.11273C65.8436 6.4694 65.4422 5.98278 64.9309 5.65287C64.4195 5.32296 63.8312 5.158 63.1658 5.158C62.5005 5.158 61.9094 5.32296 61.3926 5.65287C60.8812 5.98278 60.4798 6.4694 60.1884 7.11273C59.897 7.75606 59.7513 8.5451 59.7513 9.47985C59.7513 10.4091 59.897 11.1954 60.1884 11.8387C60.4798 12.4765 60.8812 12.9604 61.3926 13.2903C61.9094 13.6202 62.5005 13.7852 63.1658 13.7852ZM80.3873 3.32699V15.6162H78.3913L72.6096 7.24469H72.5024V15.6162H70.2755V3.32699H72.2714L78.0531 11.6985H78.1603V3.32699H80.3873ZM81.6327 5.19099V3.32699H91.4311V5.19099H87.6371V15.6162H85.4349V5.19099H81.6327ZM92.6765 15.6162V3.32699H94.9034V8.53135H100.594V3.32699H102.821V15.6162H100.594V10.4036H94.9034V15.6162H92.6765ZM104.603 15.6162V3.32699H112.603V5.19099H106.83V8.49011H112.174V10.3294H106.83V13.7522H112.636V15.6162H104.603ZM114.236 3.32699H116.966L120.612 12.2264H120.752L124.406 3.32699H127.169V15.6162H124.983V7.17046H124.884L121.47 15.575H119.869L116.496 7.15397H116.381V15.6162H114.236V3.32699ZM130.534 15.6162H128.15L132.489 3.32699H135.227L139.557 15.6162H137.182L133.899 5.85082H133.8L130.534 15.6162ZM130.616 10.7995H137.091V12.581H130.616V10.7995ZM145.256 15.7812C144.178 15.7812 143.214 15.531 142.361 15.0306C141.514 14.5303 140.846 13.8099 140.357 12.8697C139.873 11.9294 139.631 10.7995 139.631 9.47985C139.631 8.1547 139.876 7.022 140.365 6.08175C140.86 5.13601 141.531 4.41295 142.378 3.91258C143.23 3.41222 144.189 3.16203 145.256 3.16203C145.933 3.16203 146.565 3.25826 147.153 3.45071C147.747 3.64315 148.275 3.92633 148.737 4.30023C149.199 4.66863 149.575 5.12226 149.867 5.66112C150.164 6.19447 150.359 6.80206 150.452 7.48388H148.209C148.148 7.10998 148.03 6.78007 147.854 6.49414C147.684 6.20822 147.469 5.96628 147.211 5.76834C146.958 5.56489 146.669 5.41368 146.345 5.31471C146.021 5.21024 145.671 5.158 145.297 5.158C144.627 5.158 144.033 5.32571 143.516 5.66112C142.999 5.99103 142.595 6.4804 142.303 7.12922C142.012 7.77255 141.866 8.55609 141.866 9.47985C141.866 10.4146 142.012 11.2036 142.303 11.847C142.6 12.4848 143.005 12.9687 143.516 13.2986C144.033 13.623 144.624 13.7852 145.289 13.7852C145.658 13.7852 146.001 13.7385 146.32 13.645C146.639 13.546 146.928 13.4003 147.186 13.2079C147.45 13.0099 147.667 12.7735 147.838 12.4985C148.014 12.2181 148.137 11.8965 148.209 11.5335H150.452C150.37 12.1219 150.188 12.6745 149.908 13.1914C149.633 13.7027 149.27 14.1536 148.819 14.544C148.374 14.9289 147.852 15.2313 147.252 15.4513C146.653 15.6712 145.988 15.7812 145.256 15.7812ZM153.458 6.93439C153.458 6.55829 153.549 6.21683 153.73 5.91002C153.911 5.6032 154.156 5.35906 154.462 5.17761C154.773 4.99286 155.114 4.90213 155.487 4.90543C155.817 4.90213 156.12 4.97307 156.397 5.11823C156.674 5.26009 156.902 5.45474 157.08 5.70217C157.262 5.94961 157.371 6.22838 157.407 6.5385H156.338C156.302 6.36035 156.201 6.21354 156.036 6.09807C155.874 5.9826 155.691 5.92486 155.487 5.92486C155.305 5.92486 155.137 5.9694 154.982 6.05848C154.83 6.14755 154.708 6.26962 154.616 6.42468C154.527 6.57644 154.481 6.74469 154.477 6.92944C154.481 7.11419 154.527 7.28245 154.616 7.43421C154.708 7.58597 154.83 7.70804 154.982 7.80041C155.137 7.88949 155.305 7.93403 155.487 7.93403C155.695 7.93403 155.873 7.87794 156.021 7.76577C156.173 7.6503 156.269 7.50349 156.308 7.32534H157.372C157.339 7.63546 157.234 7.91423 157.056 8.16167C156.881 8.4058 156.658 8.60045 156.387 8.74561C156.117 8.88747 155.817 8.9584 155.487 8.9584C155.114 8.9584 154.773 8.86768 154.462 8.68623C154.156 8.50477 153.911 8.26064 153.73 7.95382C153.549 7.6437 153.458 7.30389 153.458 6.93439ZM155.452 10.735C154.931 10.735 154.439 10.636 153.977 10.4381C153.519 10.2401 153.115 9.96793 152.765 9.62153C152.415 9.27182 152.141 8.86768 151.944 8.4091C151.749 7.95052 151.652 7.45895 151.652 6.93439C151.655 6.40983 151.755 5.91826 151.953 5.45969C152.151 4.99781 152.424 4.59367 152.77 4.24726C153.12 3.89755 153.524 3.62538 153.982 3.43073C154.441 3.23278 154.931 3.13381 155.452 3.13381C155.98 3.13381 156.473 3.23278 156.932 3.43073C157.39 3.62538 157.793 3.89755 158.139 4.24726C158.489 4.59367 158.761 4.99781 158.956 5.45969C159.154 5.91826 159.253 6.40983 159.253 6.93439C159.256 7.45895 159.159 7.95052 158.961 8.4091C158.766 8.86768 158.494 9.27182 158.144 9.62153C157.798 9.96793 157.394 10.2401 156.932 10.4381C156.473 10.636 155.98 10.735 155.452 10.735ZM155.452 9.53245C155.815 9.53245 156.153 9.46482 156.467 9.32955C156.783 9.19429 157.06 9.00789 157.298 8.77035C157.539 8.53282 157.725 8.25734 157.857 7.94392C157.992 7.63051 158.06 7.294 158.06 6.93439C158.06 6.57479 157.992 6.23663 157.857 5.91991C157.722 5.6032 157.534 5.32607 157.293 5.08854C157.056 4.851 156.78 4.6646 156.467 4.52933C156.153 4.39407 155.815 4.32644 155.452 4.32644C155.096 4.32644 154.761 4.39407 154.448 4.52933C154.134 4.6646 153.859 4.85265 153.621 5.09348C153.384 5.33102 153.197 5.60815 153.062 5.92486C152.927 6.23828 152.859 6.57479 152.859 6.93439C152.856 7.2907 152.92 7.62721 153.052 7.94392C153.187 8.25734 153.374 8.53282 153.611 8.77035C153.852 9.00789 154.129 9.19429 154.443 9.32955C154.759 9.46482 155.096 9.53245 155.452 9.53245Z" fill="currentcolor"/>
<g clip-path="url(#clip0_348_5363)">
<path d="M10.4095 9.02752C10.4095 9.44572 10.1526 9.65781 9.56412 9.65781H8.3125V8.40918H9.57009C10.1466 8.40918 10.4095 8.63023 10.4095 9.02752Z" fill="currentcolor"/>
<path d="M18.2158 8.21767H13.6873L14.3683 7.53659C15.7604 6.14458 15.7604 3.88628 14.3683 2.49427L11.1661 5.6965V4.73464C11.1661 2.76311 9.57097 1.16797 7.60243 1.16797V5.6965L6.92136 5.01543C5.52934 3.62341 3.27105 3.62341 1.87903 5.01543L5.08127 8.21767H4.1194C2.14788 8.21767 0.552734 9.81281 0.552734 11.7813H5.08127L4.4002 12.4654C3.00818 13.8544 3.00818 16.1127 4.4002 17.5018L7.60243 14.3025V15.2674C7.60243 17.2329 9.19758 18.831 11.1661 18.831V14.3025L11.8472 14.9866C13.2392 16.3756 15.4945 16.3756 16.8865 14.9866L13.6873 11.7813H14.6521C16.6177 11.7813 18.2158 10.1862 18.2158 8.21767ZM11.5186 11.2855V11.5334C11.5186 11.8829 11.5186 12.2653 11.5813 12.4983H11.2796C10.7091 12.4983 10.2461 12.0412 10.2461 11.4707V11.2855C10.2461 10.7807 10.0609 10.5745 9.32901 10.5745H8.31338V12.4983C7.9818 12.4983 7.68309 12.3638 7.46801 12.1488C7.24995 11.9307 7.11552 11.632 7.11552 11.3004V7.50075H9.83384C10.9929 7.50075 11.653 8.06831 11.653 8.92861C11.653 9.57384 11.2766 9.95022 10.7778 10.1056C10.9839 10.1922 11.5186 10.3893 11.5186 11.2855Z" fill="currentcolor"/>
</g>
<defs>
<clipPath id="clip0_348_5363">
<rect width="18.7683" height="18.7683" fill="currentcolor" transform="translate(0 0.616211)"/>
</clipPath>
</defs>
</svg>
