<svg width="136" height="136" viewBox="0 0 136 136" fill="none" xmlns="http://www.w3.org/2000/svg">
<path d="M75.0238 60.6236C75.0238 63.6377 73.1722 65.1663 68.931 65.1663H59.9102V56.167H68.974C73.1292 56.167 75.0238 57.7602 75.0238 60.6236Z" fill="#252422"/>
<path d="M131.287 54.7868H98.6489L103.558 49.8781C113.59 39.8454 113.59 23.5693 103.558 13.5366L80.4782 36.616V29.6836C80.4782 15.4742 68.9815 3.97754 54.7936 3.97754V36.616L49.885 31.7073C39.8523 21.6747 23.5761 21.6747 13.5434 31.7073L36.6229 54.7868H29.6904C15.481 54.7868 3.98438 66.2835 3.98438 80.4713H36.6229L31.7142 85.4016C21.6815 95.4127 21.6815 111.689 31.7142 121.7L54.7936 98.6421V105.596C54.7936 119.762 66.2903 131.281 80.4782 131.281V98.6421L85.3869 103.572C95.4195 113.583 111.674 113.583 121.707 103.572L98.6489 80.4713H105.603C119.769 80.4713 131.287 68.9747 131.287 54.7868ZM83.0186 76.8975V78.6844C83.0186 81.2033 83.0186 83.9591 83.4707 85.6384H81.2963C77.1842 85.6384 73.8471 82.3444 73.8471 78.2323V76.8975C73.8471 73.259 72.5123 71.7735 67.2376 71.7735H59.9176V85.6384C57.5279 85.6384 55.3749 84.6696 53.8248 83.1194C52.2532 81.5478 51.2844 79.3949 51.2844 77.0051V49.6198H70.8761C79.2295 49.6198 83.9874 53.7103 83.9874 59.9108C83.9874 64.5611 81.2748 67.2738 77.6794 68.3934C79.1649 69.0177 83.0186 70.4387 83.0186 76.8975Z" fill="#252422"/>
</svg>
