<?xml version="1.0" standalone="no"?>
<!DOCTYPE svg PUBLIC "-//W3C//DTD SVG 20010904//EN"
 "http://www.w3.org/TR/2001/REC-SVG-20010904/DTD/svg10.dtd">
<svg version="1.0" xmlns="http://www.w3.org/2000/svg"
 width="700.000000pt" height="700.000000pt" viewBox="0 0 700.000000 700.000000"
 preserveAspectRatio="xMidYMid meet">
<metadata>
Created by potrace 1.14, written by Peter Selinger 2001-2017
</metadata>
<g transform="translate(0.000000,700.000000) scale(0.100000,-0.100000)"
fill="#000000" stroke="none">
<path d="M2820 5956 l0 -839 -177 174 c-239 235 -375 324 -604 399 -131 43
-254 61 -409 61 -342 -1 -641 -116 -889 -344 l-43 -40 593 -593 594 -594 -215
0 c-119 0 -254 -5 -300 -11 -416 -51 -784 -296 -991 -658 -95 -164 -156 -367
-166 -543 l-6 -108 838 0 838 0 -169 -173 c-232 -237 -324 -375 -399 -600 -47
-142 -65 -255 -65 -417 0 -162 18 -275 65 -417 57 -170 155 -339 270 -468 l45
-50 594 594 594 594 5 -269 c4 -188 10 -291 21 -344 74 -350 277 -653 566
-844 195 -129 400 -198 658 -221 l72 -7 0 843 0 842 178 -174 c189 -187 307
-276 453 -343 303 -138 646 -159 962 -60 167 53 350 158 477 273 l55 50 -594
594 -594 595 279 5 c258 4 286 6 380 30 265 68 460 179 645 367 218 221 347
511 374 838 l7 82 -843 0 -843 0 175 178 c96 97 196 206 221 242 265 378 318
865 138 1286 -61 143 -129 249 -239 374 l-40 45 -595 -595 -596 -595 0 235 c0
322 -27 476 -120 676 -201 435 -625 729 -1097 762 l-103 7 0 -839z m929 -1516
c274 -25 466 -144 542 -338 20 -48 23 -76 23 -182 1 -107 -3 -133 -22 -180
-43 -107 -146 -208 -244 -241 -21 -7 -38 -15 -38 -19 0 -3 20 -16 45 -28 57
-28 120 -84 150 -136 52 -89 57 -117 65 -371 4 -132 11 -266 15 -297 l7 -58
-65 0 c-186 0 -320 78 -389 226 -27 59 -31 80 -38 197 -8 147 -20 189 -69 230
-61 51 -120 60 -396 61 l-250 1 -3 -358 -2 -358 -48 7 c-144 20 -262 99 -335
225 -57 97 -57 99 -57 896 l0 733 498 0 c273 0 548 -5 611 -10z"/>
<path d="M3080 3880 l0 -230 282 0 c329 0 376 8 439 71 77 77 80 228 6 307
-64 69 -139 82 -462 82 l-265 0 0 -230z"/>
</g>
</svg>
