<svg width="160" height="95" viewBox="0 0 160 95" fill="none" xmlns="http://www.w3.org/2000/svg">
<g clip-path="url(#clip0_334_12413)">
<path d="M38.0601 74.5225C31.3977 74.5225 29.0312 79.8233 29.0312 84.3596C29.0312 88.8958 31.3977 94.1967 38.0601 94.1967C44.7225 94.1967 47.089 88.8958 47.089 84.3596C47.089 79.8233 44.7225 74.5225 38.0601 74.5225ZM38.0601 92.3253C34.1573 92.3253 31.536 89.1216 31.536 84.3596C31.536 79.5976 34.1573 76.3938 38.0601 76.3938C41.9629 76.3938 44.5842 79.5976 44.5842 84.3596C44.5842 89.1216 41.9629 92.3253 38.0601 92.3253Z" fill="#252422"/>
<path d="M51.4211 77.9749V74.8949H49.2949V93.6808H51.5667V84.2805C51.5667 80.8219 52.5497 76.6861 57.217 76.6861L57.9306 76.7225V76.6497L58.0544 74.458H57.7923C54.6394 74.458 52.4987 75.6449 51.4211 77.9822" fill="#252422"/>
<path d="M97.6137 78.5568C96.0482 78.0398 94.8977 77.7413 93.0264 77.7413C91.6502 77.7413 90.0119 78.2218 90.0119 79.8601C90.0119 82.9037 98.917 80.9742 98.917 87.8696C98.917 92.3258 94.8322 94.1024 90.6673 94.1024C88.7159 94.1024 86.7281 93.7675 84.8568 93.2869L85.1626 89.2021C86.7645 89.9812 88.4465 90.4618 90.2013 90.4618C91.5046 90.4618 93.5652 89.9812 93.5652 88.1245C93.5652 84.3746 84.6602 86.9376 84.6602 80.0349C84.6602 75.9209 88.3664 74.1006 92.3784 74.1006C94.7885 74.1006 96.354 74.4719 97.9559 74.8069L97.6137 78.5495V78.5568Z" fill="#252422"/>
<path d="M126.574 74.5752H121.455V93.6814H126.574V74.5752Z" fill="#252422"/>
<path d="M158.602 78.5568C157.036 78.0398 155.886 77.7413 154.015 77.7413C152.639 77.7413 150.993 78.2218 150.993 79.8601C150.993 82.9037 159.898 80.9742 159.898 87.8696C159.898 92.3258 155.813 94.1024 151.648 94.1024C149.697 94.1024 147.716 93.7675 145.838 93.2869L146.144 89.2021C147.745 89.9812 149.427 90.4618 151.19 90.4618C152.486 90.4618 154.554 89.9812 154.554 88.1245C154.554 84.3746 145.648 86.9376 145.648 80.0349C145.648 75.9209 149.355 74.1006 153.367 74.1006C155.77 74.1006 157.335 74.4719 158.944 74.8069L158.602 78.5495V78.5568Z" fill="#252422"/>
<path d="M111.455 83.1371L118.707 74.5742H112.671L106.554 82.2124H106.482V64.293L101.355 65.8585V93.6805H106.482V84.404H106.554L113.129 93.6805H119.624L111.455 83.1371Z" fill="#252422"/>
<path d="M81.5897 65.3426L79.4053 66.0125V77.6262C78.932 76.8326 77.1554 74.4006 73.187 74.4516C66.612 74.5317 65.2285 79.847 65.2285 84.2887C65.2285 90.354 68.2794 94.1257 73.187 94.1257C76.1141 94.1257 78.0874 93.0481 79.4053 90.7691V93.6816H81.6771V65.3135L81.5824 65.3426H81.5897ZM73.5729 92.2544C68.3085 92.2544 67.7333 86.6842 67.7333 84.2887C67.7333 81.8931 68.3012 76.3229 73.5729 76.3229C77.6068 76.3229 79.4126 80.3203 79.4126 84.2887C79.4126 88.257 77.6068 92.2544 73.5729 92.2544Z" fill="#252422"/>
<path d="M62.6049 65.3426L60.4277 66.0052V93.6816H62.6995V65.3135L62.6049 65.3426Z" fill="#252422"/>
<path d="M129.877 65.8585V93.6805H134.996V64.293L129.877 65.8585Z" fill="#252422"/>
<path d="M137.951 65.8585H137.943V93.6805H143.069V64.293L137.951 65.8585Z" fill="#252422"/>
<path d="M126.971 67.4392C126.971 65.8665 125.689 64.585 124.117 64.585C122.544 64.585 121.27 65.8592 121.27 67.4392C121.27 69.0193 122.544 70.2935 124.117 70.2935C125.689 70.2935 126.971 69.0193 126.971 67.4392Z" fill="#252422"/>
<path d="M2.43925 74.8955H0L0.0291254 74.9902C0.145627 75.3469 6.14545 93.4702 6.2037 93.6304L6.21827 93.6814H9.02886C9.02886 93.6814 14.3078 77.4221 14.337 77.3202H14.5117C14.5481 77.4221 19.8198 93.6814 19.8198 93.6814H22.6304L29.0016 74.8955H26.7371C26.7371 74.8955 21.3853 91.1547 21.3489 91.2567H21.1741C21.145 91.162 16.019 74.8955 16.019 74.8955H13.2084C13.2084 74.8955 7.81288 91.1547 7.78376 91.2567H7.609C7.57988 91.1547 2.49022 74.8955 2.49022 74.8955H2.43925Z" fill="#252422"/>
<path d="M116.867 33.0198C116.867 33.0198 125.859 31.4252 128.801 24.2822C128.801 24.2822 181.146 35.0076 150.244 62.9243C150.244 62.9243 161.712 52.1261 155.305 43.4904C155.305 43.4904 158.88 54.2158 144.878 61.4316C144.878 61.4316 175.241 39.8643 116.859 33.0126" fill="#252422"/>
<path d="M145.549 29.1094C149.211 30.9224 151.774 32.6991 153.267 33.8714C153.922 15.1292 140.488 4.65137 140.488 4.65137C140.095 5.85279 138.923 7.19256 137.248 7.80419C135.573 8.41582 134.568 10.4255 134.568 10.4255C141.136 15.8865 144.289 22.5562 145.549 29.1021" fill="#252422"/>
<path d="M127.407 25.6074C128.201 24.4205 128.419 23.6123 128.419 23.6123C131.878 24.2239 134.987 25.0394 137.747 25.9423C132.016 9.58842 121.349 0.639648 121.349 0.639648C121.05 1.49885 117.927 3.05705 115.801 3.98907C113.682 4.92108 114.235 8.86757 114.235 8.86757C120.067 13.6878 124.312 19.5857 127.4 25.6074" fill="#252422"/>
<path d="M149.356 43.7227C148.635 51.7904 143.844 60.3532 143.844 60.3532C147.23 55.2053 149.538 50.3778 151.03 45.8779C150.608 45.1207 150.047 44.3998 149.356 43.7227Z" fill="#252422"/>
<path d="M148.721 43.1479C147.934 42.4708 147.017 41.8373 146.005 41.2402C145.168 49.9196 142.27 56.4437 142.27 56.4437C143.944 54.5432 145.226 51.4705 145.226 51.4705C145.284 53.6476 143.493 57.9509 143.493 57.9509C146.566 53.0142 148.036 47.0071 148.714 43.1479" fill="#252422"/>
<path d="M130.554 60.0552C128.69 59.0504 125.996 57.9873 120.447 53.6913C124.649 56.8514 131.653 58.8684 131.653 58.8684C116.173 51.0118 112.802 43.8907 112.802 43.8907C111.309 43.8397 110.414 44.7863 109.824 45.1139C109.234 45.4343 107.625 45.4125 107.625 45.4125C113.523 54.9219 130.554 60.0552 130.554 60.0552Z" fill="#252422"/>
<path d="M123.629 34.4548C118.489 33.6029 114.71 33.2753 114.71 33.2753C116.763 32.7583 118.511 32.1321 120.01 31.4477C112.773 26.176 105.564 24.8799 105.564 24.8799C105.564 24.8799 104.225 25.324 104.035 27.5594C103.853 29.7948 102.135 30.0933 102.135 30.0933C129.163 37.3164 133.219 59.5828 133.219 59.5828C131.377 49.5272 127.467 43.1051 127.467 43.1051C131.602 47.3501 134.449 58.1265 134.449 58.1265C133.532 46.986 128.908 39.4717 123.622 34.4548" fill="#252422"/>
<path d="M131.719 36.0635C135.607 48.0704 135.687 58.2352 135.687 58.2352C138.563 52.6504 137.806 39.8061 137.806 39.8061C140.485 45.0559 140.151 59.3492 140.151 59.3492C141.527 51.8349 141.578 44.9686 140.791 38.7867C137.937 37.6945 134.799 36.7916 131.719 36.0635Z" fill="#252422"/>
</g>
<defs>
<clipPath id="clip0_334_12413">
<rect width="160" height="93.558" fill="white" transform="translate(0 0.639648)"/>
</clipPath>
</defs>
</svg>
